<?xml version="1.0" standalone="no"?>
<!DOCTYPE svg PUBLIC "-//W3C//DTD SVG 20010904//EN"
 "http://www.w3.org/TR/2001/REC-SVG-20010904/DTD/svg10.dtd">
<svg version="1.0" xmlns="http://www.w3.org/2000/svg"
 width="2749.000000pt" height="2749.000000pt" viewBox="0 0 2749.000000 2749.000000"
 preserveAspectRatio="xMidYMid meet">
<metadata>
Created by potrace 1.11, written by Peter Selinger 2001-2013
</metadata>
<g transform="translate(0.000000,2749.000000) scale(0.100000,-0.100000)"
fill="#000000" stroke="none">
<path d="M14835 20741 c-101 -21 -183 -41 -220 -54 -123 -44 -259 -131 -365
-233 l-45 -44 -83 59 c-107 77 -207 126 -317 157 -173 48 -231 57 -380 58
-151 1 -207 -7 -350 -52 -171 -53 -380 -204 -498 -362 -105 -140 -126 -181
-174 -340 -26 -88 -28 -108 -28 -267 l0 -171 -30 -5 c-16 -2 -68 -5 -115 -6
-135 -2 -679 -45 -990 -77 -535 -55 -924 -104 -971 -122 -59 -23 -106 -99
-109 -177 -1 -35 -6 -44 -44 -72 -88 -64 -100 -130 -72 -398 9 -77 22 -219 31
-315 9 -96 22 -242 30 -325 8 -82 17 -179 20 -215 3 -36 9 -108 14 -160 6 -52
13 -131 16 -175 3 -44 10 -116 15 -160 5 -44 12 -116 15 -160 3 -44 10 -120
15 -170 5 -49 12 -126 15 -170 3 -44 10 -123 15 -175 6 -52 12 -131 15 -175 3
-44 9 -120 15 -170 5 -49 12 -130 15 -180 3 -49 10 -128 15 -175 5 -47 12
-128 15 -180 3 -52 10 -133 15 -180 5 -47 12 -125 15 -175 3 -49 7 -110 10
-135 11 -110 15 -151 20 -235 3 -49 9 -133 15 -185 5 -52 12 -135 15 -185 3
-49 10 -135 15 -190 5 -55 12 -140 15 -190 3 -49 10 -133 15 -185 5 -52 12
-142 15 -200 3 -58 10 -148 15 -200 5 -52 12 -138 15 -190 2 -52 8 -130 11
-172 4 -43 4 -78 1 -78 -4 0 -27 34 -63 95 -18 32 -194 317 -219 355 -29 46
-91 144 -135 216 -19 31 -58 93 -87 138 -28 44 -77 122 -109 171 -62 98 -74
118 -156 245 -54 84 -142 219 -282 435 -103 159 -630 948 -731 1095 -47 69
-120 175 -161 235 -41 61 -103 151 -138 200 -186 266 -284 406 -386 550 -63
88 -149 210 -192 270 -92 129 -188 261 -352 485 -118 161 -118 162 -111 206
29 193 -24 510 -119 716 -14 31 -26 59 -26 63 0 3 -10 20 -22 38 -157 225
-310 366 -488 449 -95 45 -283 100 -385 113 -50 6 -52 8 -125 102 -120 154
-259 329 -489 617 -119 148 -244 305 -279 348 -129 162 -168 184 -288 162
-145 -26 -225 -44 -257 -58 -46 -19 -81 -65 -152 -196 -33 -61 -71 -130 -83
-153 -33 -58 -188 -359 -381 -742 -89 -176 -167 -325 -172 -332 -6 -6 -25 -15
-42 -18 -18 -4 -56 -18 -85 -31 -29 -13 -55 -24 -57 -24 -3 0 -27 -15 -54 -32
-258 -172 -345 -309 -381 -598 -14 -109 -1 -309 26 -423 l17 -67 -48 -103
c-26 -56 -69 -147 -95 -202 -26 -55 -73 -154 -103 -220 -30 -66 -78 -169 -107
-230 -61 -129 -113 -242 -158 -345 -46 -103 -126 -280 -158 -348 -19 -41 -34
-75 -34 -77 0 -2 -14 -33 -30 -68 -17 -36 -30 -68 -30 -70 0 -3 -15 -38 -34
-79 -18 -40 -61 -138 -96 -218 -34 -80 -70 -163 -80 -185 -10 -22 -30 -69 -45
-105 -15 -36 -36 -83 -46 -105 -10 -22 -30 -69 -45 -105 -14 -36 -34 -83 -44
-105 -21 -46 -172 -408 -250 -595 -28 -69 -55 -134 -60 -145 -5 -11 -25 -60
-45 -110 -20 -49 -40 -99 -44 -110 -5 -11 -23 -54 -39 -95 -17 -41 -49 -119
-71 -172 -23 -53 -41 -100 -41 -103 0 -4 -18 -48 -39 -98 -22 -51 -60 -145
-85 -209 -25 -65 -67 -171 -92 -235 -25 -65 -56 -145 -69 -178 -21 -53 -68
-177 -109 -285 -8 -19 -21 -53 -29 -75 -8 -22 -30 -78 -47 -125 -35 -95 -58
-155 -70 -185 -5 -11 -25 -65 -45 -120 -20 -55 -41 -109 -46 -120 -4 -11 -19
-51 -33 -90 -13 -38 -38 -108 -56 -155 -17 -47 -52 -141 -76 -210 -25 -69 -51
-141 -58 -160 -71 -193 -409 -1154 -421 -1200 -3 -8 -78 -235 -168 -505 -90
-269 -177 -530 -192 -580 -16 -49 -50 -155 -75 -235 -105 -326 -114 -364 -100
-416 9 -31 28 -61 60 -93 41 -41 60 -51 176 -89 178 -59 184 -62 184 -81 0 -9
-13 -57 -29 -106 -16 -50 -50 -157 -76 -240 -25 -82 -53 -167 -61 -188 -17
-46 -18 -101 -2 -115 7 -5 126 -48 263 -95 138 -46 306 -105 375 -130 69 -25
136 -48 150 -52 14 -4 52 -18 85 -30 33 -13 200 -75 372 -139 171 -63 353
-132 405 -152 51 -20 120 -46 153 -59 193 -75 587 -234 775 -313 52 -22 133
-56 180 -76 101 -42 134 -45 155 -13 8 13 35 102 59 198 25 96 58 224 74 284
16 61 46 173 66 250 21 77 50 187 66 245 16 58 38 139 49 180 11 41 43 158 71
260 29 102 63 223 75 270 13 47 34 123 48 170 13 47 39 137 56 200 42 151 50
169 75 175 23 5 579 115 711 140 163 31 508 91 865 150 428 71 1072 164 1465
210 72 9 182 22 245 30 63 7 178 21 255 29 77 8 201 22 275 30 74 8 176 18
226 22 l91 6 22 -30 c11 -17 21 -32 21 -35 0 -2 48 -89 106 -193 59 -104 125
-223 147 -264 22 -41 69 -126 104 -187 34 -62 63 -115 63 -117 0 -2 33 -63 73
-137 41 -74 100 -183 132 -244 32 -60 84 -157 115 -215 32 -58 92 -172 135
-255 43 -82 115 -220 160 -305 46 -85 108 -205 139 -267 53 -107 82 -141 110
-130 7 3 172 110 367 239 310 205 514 337 813 524 43 27 109 68 145 92 36 23
75 46 86 51 11 6 40 24 65 40 l45 31 8 -183 c4 -100 14 -208 22 -240 21 -86
65 -134 143 -158 24 -7 47 -20 51 -28 5 -9 9 -50 10 -91 1 -41 6 -138 11 -215
5 -77 10 -185 10 -240 0 -55 5 -118 10 -140 14 -61 29 -67 145 -60 55 3 141 8
190 11 50 2 146 9 215 14 69 5 193 14 275 20 144 10 377 28 645 50 69 5 163
14 210 20 47 5 119 12 160 15 41 3 107 10 145 15 39 5 102 12 140 15 39 3 102
10 140 15 39 5 97 12 130 15 33 3 92 10 130 15 39 5 88 12 110 14 948 116
1971 324 2670 543 301 94 725 243 850 298 17 8 59 26 95 40 207 86 573 270
730 368 311 193 503 340 695 532 182 181 315 352 420 540 47 82 42 83 102 -8
59 -87 236 -325 275 -367 13 -14 50 -57 83 -95 174 -205 481 -485 750 -685
381 -284 871 -563 1335 -760 80 -34 154 -65 165 -70 11 -5 45 -19 75 -30 30
-11 64 -25 75 -30 32 -15 305 -106 438 -146 160 -48 306 -86 497 -129 85 -20
171 -40 190 -45 19 -4 87 -18 150 -30 63 -12 147 -27 185 -35 136 -27 572 -94
775 -120 69 -9 159 -20 200 -25 69 -9 318 -36 550 -60 52 -6 127 -12 165 -15
39 -3 115 -10 170 -16 274 -27 594 -39 1010 -38 517 1 657 7 683 32 14 14 18
40 20 141 3 119 4 124 28 134 13 6 26 22 28 34 3 13 7 190 9 395 4 358 5 372
25 401 12 16 26 40 31 54 11 30 29 788 36 1548 3 316 8 742 11 945 7 408 4
435 -49 492 -55 59 -80 62 -502 62 -391 0 -559 4 -750 21 -60 5 -144 12 -185
15 -95 7 -237 23 -365 41 -55 8 -118 16 -140 19 -22 2 -62 9 -90 15 -27 5 -66
12 -85 15 -542 85 -1113 299 -1520 568 -347 230 -597 482 -747 752 -77 140
-140 299 -149 379 -6 48 -2 58 63 186 58 115 104 191 200 330 46 67 212 255
300 340 179 174 305 275 521 419 105 70 343 211 356 211 3 0 27 13 53 29 64
39 343 165 518 233 204 80 371 136 640 213 396 113 1105 233 1535 260 52 3
145 10 205 15 61 6 147 10 191 10 63 0 86 4 102 18 28 23 28 32 13 137 -18
123 -15 139 29 145 32 5 35 8 35 40 -1 41 -14 158 -20 180 -2 8 -13 75 -25
148 l-20 134 33 39 c45 52 60 106 52 182 -4 34 -8 63 -10 65 -1 1 10 16 26 33
50 53 56 109 29 254 -5 28 -12 73 -15 100 -3 28 -10 73 -15 100 -5 28 -12 68
-14 90 -2 22 -11 81 -20 130 -20 117 -66 410 -72 455 -2 19 -9 58 -14 85 -5
28 -12 70 -15 95 -3 25 -10 68 -15 95 -6 28 -12 68 -14 90 -2 22 -9 67 -14
100 -12 65 -33 192 -57 338 -16 96 -36 216 -60 352 -19 113 -42 250 -61 358
-8 50 -22 126 -29 167 -7 41 -21 120 -30 175 -34 202 -56 286 -84 318 -37 42
-96 67 -161 67 -150 1 -791 -63 -1063 -106 -54 -9 -99 -14 -101 -13 -1 2 -13
24 -25 49 -47 92 -111 169 -194 232 -75 57 -181 118 -207 118 -6 0 -18 4 -28
10 -22 12 -114 36 -172 45 -25 4 -53 9 -63 11 -10 2 -71 8 -135 14 -210 19
-482 -14 -677 -83 -88 -31 -200 -103 -285 -183 l-75 -71 -75 54 c-117 84 -211
126 -385 173 -258 69 -508 53 -745 -47 -47 -20 -97 -45 -112 -57 -14 -11 -52
-39 -83 -61 -92 -65 -235 -221 -307 -338 -50 -80 -103 -262 -113 -382 -16
-193 39 -492 129 -707 6 -13 -14 -29 -96 -77 -238 -142 -615 -399 -850 -581
-25 -19 -83 -64 -129 -100 -46 -35 -88 -69 -94 -75 -5 -7 -46 -40 -89 -75 -43
-35 -91 -75 -105 -88 -14 -14 -69 -62 -121 -108 -124 -108 -516 -506 -650
-659 -156 -177 -320 -385 -478 -604 -29 -41 -32 -43 -33 -20 0 13 -4 62 -8
109 -5 58 -3 102 6 140 74 314 98 564 73 770 -18 148 -21 163 -46 269 -42 170
-77 270 -145 405 -199 397 -548 746 -1046 1044 -355 213 -742 370 -1333 540
-108 31 -418 108 -547 136 -40 9 -104 23 -141 32 l-68 15 11 72 c24 151 1 379
-59 592 -60 214 -224 441 -419 583 -151 109 -254 154 -487 207 -76 18 -317 28
-375 16z m-466 -4331 c411 -36 722 -131 954 -293 135 -95 133 -92 118 -185
-22 -132 -64 -241 -123 -322 -62 -84 -243 -258 -338 -326 -197 -139 -424 -255
-611 -310 -53 -16 -220 -46 -225 -41 -2 2 -4 194 -5 428 -1 233 -4 567 -8 742
l-6 317 64 0 c36 0 117 -5 180 -10z m-8878 -2306 c26 -38 105 -163 176 -279
71 -115 170 -275 219 -355 49 -80 96 -157 104 -171 8 -14 39 -65 69 -113 29
-48 51 -89 50 -91 -4 -3 -157 -25 -369 -51 -69 -8 -168 -22 -220 -29 -52 -8
-117 -17 -145 -20 -61 -6 -168 -21 -291 -41 -50 -8 -97 -14 -104 -14 -14 0 -8
34 19 95 10 22 35 90 56 150 21 61 42 114 46 120 5 5 9 16 9 25 0 9 20 68 45
130 25 62 45 120 45 127 0 8 5 11 12 7 7 -5 9 -2 5 8 -3 9 -3 19 1 22 3 4 7
15 9 26 5 35 55 150 65 150 5 0 6 5 2 11 -3 6 1 28 10 50 18 44 33 82 72 186
15 40 32 69 37 66 6 -3 7 -1 3 5 -10 16 4 64 18 59 6 -2 32 -35 57 -73z m9123
-2115 c83 -11 158 -21 166 -24 8 -2 31 -7 50 -10 46 -8 236 -63 275 -79 16 -8
46 -19 65 -27 68 -25 216 -101 284 -147 74 -49 222 -184 257 -234 21 -28 21
-30 3 -101 -28 -114 -58 -161 -189 -293 -125 -127 -213 -196 -380 -303 -318
-202 -617 -328 -876 -368 l-57 -9 -6 190 c-3 105 -8 472 -11 815 l-5 624 137
-7 c75 -4 205 -16 287 -27z"/>
<path d="M5419 14093 c-13 -16 -12 -17 4 -4 9 7 17 15 17 17 0 8 -8 3 -21 -13z"/>
<path d="M5407 14062 c2 -3 -7 -17 -19 -31 -13 -14 -16 -20 -7 -13 9 6 20 8
24 4 5 -4 5 -2 2 5 -4 6 -1 13 5 16 9 3 10 7 2 15 -6 5 -9 7 -7 4z"/>
<path d="M5416 14015 c-3 -10 -11 -13 -18 -9 -10 6 -10 4 -3 -7 18 -26 12 -54
-14 -57 -16 -3 -21 0 -16 9 5 8 4 10 -4 5 -6 -4 -9 -11 -6 -16 3 -4 -1 -11 -7
-14 -7 -4 -3 -4 8 -2 16 2 25 -4 33 -21 9 -19 9 -24 -1 -20 -7 2 -12 10 -10
16 3 15 -15 14 -21 -1 -4 -10 -8 -9 -17 2 -10 13 -11 13 -7 0 2 -8 11 -15 21
-15 9 0 20 -5 24 -10 10 -15 35 -18 26 -4 -5 9 -2 10 10 6 12 -5 15 -3 10 5
-4 6 -8 24 -9 40 -2 26 0 27 29 23 22 -4 27 -3 16 4 -8 5 -18 7 -22 5 -4 -3
-8 4 -8 16 0 12 5 18 10 15 6 -3 10 -1 10 5 0 7 -8 9 -22 4 -20 -6 -21 -5 -9
10 8 9 12 19 9 22 -3 3 -8 -2 -12 -11z"/>
<path d="M5371 13993 c0 -4 4 -17 9 -28 8 -19 9 -19 9 2 1 12 -3 25 -9 28 -5
3 -10 3 -9 -2z"/>
<path d="M5430 13910 c0 -5 5 -10 11 -10 5 0 7 5 4 10 -3 6 -8 10 -11 10 -2 0
-4 -4 -4 -10z"/>
<path d="M5336 13829 c3 -5 -4 -17 -16 -29 -12 -12 -15 -20 -7 -20 6 0 19 13
28 28 13 22 13 29 3 29 -7 0 -11 -4 -8 -8z"/>
<path d="M5456 13777 c3 -10 9 -15 12 -12 3 3 0 11 -7 18 -10 9 -11 8 -5 -6z"/>
<path d="M5425 13730 c-3 -5 -1 -10 4 -10 6 0 11 5 11 10 0 6 -2 10 -4 10 -3
0 -8 -4 -11 -10z"/>
<path d="M5435 13680 c-3 -5 -1 -10 4 -10 6 0 11 5 11 10 0 6 -2 10 -4 10 -3
0 -8 -4 -11 -10z"/>
<path d="M5365 13670 c-16 -7 -17 -9 -3 -9 9 -1 20 4 23 9 7 11 7 11 -20 0z"/>
<path d="M5313 13653 c4 -6 0 -16 -8 -23 -17 -14 -20 -40 -5 -40 5 0 7 7 4 15
-4 9 0 15 10 15 18 0 22 25 4 36 -6 4 -8 3 -5 -3z"/>
<path d="M5407 13654 c-8 -8 3 -34 15 -34 6 0 5 6 -2 15 -8 9 -9 15 -2 15 6 0
13 -4 17 -10 3 -5 12 -7 21 -3 8 3 13 7 11 10 -8 7 -54 13 -60 7z"/>
<path d="M5236 13608 c3 -4 9 -8 15 -8 5 0 9 4 9 8 0 5 -7 9 -15 9 -8 0 -12
-4 -9 -9z"/>
<path d="M5330 13605 c0 -8 29 -12 39 -5 9 5 4 8 -13 8 -14 0 -26 -2 -26 -3z"/>
<path d="M5398 13599 c16 -17 16 -34 -1 -21 -8 7 -18 7 -27 2 -8 -5 -21 -5
-31 1 -21 11 -27 4 -27 -33 0 -17 6 -28 14 -28 8 0 14 5 14 11 0 5 -3 8 -7 6
-5 -3 -9 7 -10 21 -1 22 0 23 9 9 5 -10 13 -15 18 -12 5 3 11 1 15 -5 3 -5 2
-10 -3 -10 -5 0 -9 -7 -9 -16 0 -14 2 -14 11 -2 12 15 60 23 51 7 -4 -5 -1 -9
5 -9 7 0 10 7 6 18 -4 11 0 9 12 -6 15 -20 18 -21 19 -5 1 10 4 32 6 48 4 27
1 31 -22 32 -20 1 -22 0 -8 -6 22 -8 24 -21 5 -32 -20 -13 -32 -11 -20 4 8 10
5 16 -11 26 -18 11 -20 11 -9 0z m6 -50 c-5 -9 -44 6 -44 17 0 3 5 2 10 -1 6
-3 10 -1 10 6 0 8 4 8 15 -1 8 -7 12 -16 9 -21z m50 6 c-4 -8 -11 -12 -16 -9
-6 4 -5 10 3 15 19 12 19 11 13 -6z"/>
<path d="M5230 13574 c0 -8 -5 -12 -11 -8 -8 4 -8 0 0 -15 7 -11 19 -20 29
-20 16 1 16 2 -1 6 -12 3 -15 11 -11 29 3 13 3 24 0 24 -3 0 -6 -7 -6 -16z"/>
<path d="M5254 13572 c0 -11 8 -18 21 -19 11 -1 14 1 8 4 -7 3 -13 11 -13 19
0 8 -4 14 -8 14 -4 0 -8 -8 -8 -18z"/>
<path d="M5478 13533 c7 -3 16 -2 19 1 4 3 -2 6 -13 5 -11 0 -14 -3 -6 -6z"/>
<path d="M5216 13493 c-17 -27 -17 -28 1 -7 10 11 25 23 33 27 12 4 12 6 -1 6
-9 1 -24 -11 -33 -26z"/>
</g>
</svg>
