<?xml version="1.0" encoding="UTF-8"?>
<svg viewBox="0 0 445.44147 486.1246" xmlns="http://www.w3.org/2000/svg" xmlns:xlink="http://www.w3.org/1999/xlink">
 <defs>
  <linearGradient id="c" x1="1.695" x2="1.3512" y1="3.5983" y2="3.3137" gradientUnits="userSpaceOnUse">
   <stop stop-color="#0c0d10" offset="0"/>
   <stop stop-color="#949393" offset="1"/>
  </linearGradient>
  <linearGradient id="ax" x1="1.2526" x2=".97195" y1="4.6514" y2="4.6033" gradientUnits="userSpaceOnUse">
   <stop stop-color="#0c0d10" offset="0"/>
   <stop stop-color="#505051" offset=".56863"/>
   <stop stop-color="#949393" offset="1"/>
  </linearGradient>
  <linearGradient id="bc" x1=".64594" x2=".34961" y1="5.6535" y2="5.7284" gradientUnits="userSpaceOnUse">
   <stop stop-color="#0c0d10" offset="0"/>
   <stop stop-color="#505051" offset=".61177"/>
   <stop stop-color="#949393" offset="1"/>
  </linearGradient>
  <linearGradient id="d" x1=".94812" x2=".91096" y1="5.121" y2="4.9352" gradientUnits="userSpaceOnUse">
   <stop stop-color="#0c0d10" offset="0"/>
   <stop stop-color="#505051" offset=".58823"/>
   <stop stop-color="#949393" offset="1"/>
  </linearGradient>
  <linearGradient id="a" x1="1.6687" x2="1.1754" y1="5.7688" y2="5.0728" gradientUnits="userSpaceOnUse">
   <stop stop-color="#e4c913" offset="0"/>
   <stop stop-color="#d68700" offset="1"/>
  </linearGradient>
  <linearGradient id="b" x1="6.7784" x2="7.4257" y1="6.1748" y2="5.248" gradientUnits="userSpaceOnUse">
   <stop stop-color="#291a00" offset="0"/>
   <stop stop-color="#925d00" offset="1"/>
  </linearGradient>
  <linearGradient id="e" x1="1.695" x2="1.3512" y1="3.5983" y2="3.3137" gradientUnits="userSpaceOnUse" xlink:href="#c"/>
  <linearGradient id="f" x1=".94812" x2=".91096" y1="5.121" y2="4.9352" gradientUnits="userSpaceOnUse" xlink:href="#d"/>
  <linearGradient id="g" x1="1.6687" x2="1.1754" y1="5.7688" y2="5.0728" gradientUnits="userSpaceOnUse" xlink:href="#a"/>
  <linearGradient id="h" x1="6.7784" x2="7.4257" y1="6.1748" y2="5.248" gradientUnits="userSpaceOnUse" xlink:href="#b"/>
  <linearGradient id="m" x1="2.3943" x2="2.5697" y1="5.5279" y2="5.5201" gradientUnits="userSpaceOnUse" xlink:href="#a"/>
  <linearGradient id="n" x1="4.2876" x2="4.6211" y1="4.9887" y2="4.7941" gradientUnits="userSpaceOnUse" xlink:href="#a"/>
  <linearGradient id="o" x1="1.8584" x2="1.7962" y1="4.3527" y2="4.1311" gradientUnits="userSpaceOnUse" xlink:href="#a"/>
  <linearGradient id="q" x1="1.9201" x2="1.713" y1="6.0057" y2="6.1722" gradientUnits="userSpaceOnUse" xlink:href="#a"/>
  <linearGradient id="r" x1="2.334" x2="2.1588" y1="4.7519" y2="3.9356" gradientUnits="userSpaceOnUse" xlink:href="#a"/>
  <linearGradient id="s" x1="4.8705" x2="4.7773" y1="3.5505" y2="3.0682" gradientUnits="userSpaceOnUse" xlink:href="#a"/>
  <linearGradient id="t" x1="4.0112" x2="3.9221" y1="4.6661" y2="4.0233" gradientUnits="userSpaceOnUse" xlink:href="#a"/>
  <linearGradient id="u" x1="4.2149" x2="4.136" y1="3.8462" y2="3.2608" gradientUnits="userSpaceOnUse" xlink:href="#a"/>
  <linearGradient id="v" x1="3.6311" x2="3.8076" y1="5.6243" y2="5.3798" gradientUnits="userSpaceOnUse" xlink:href="#a"/>
  <linearGradient id="w" x1="1.0713" x2=".85437" y1="5.6117" y2="5.3369" gradientUnits="userSpaceOnUse" xlink:href="#a"/>
  <linearGradient id="x" x1=".66768" x2=".89418" y1="6.1603" y2="6.0212" gradientUnits="userSpaceOnUse" xlink:href="#a"/>
  <linearGradient id="y" x1=".77152" x2=".58628" y1="5.3397" y2="5.1027" gradientUnits="userSpaceOnUse" xlink:href="#d"/>
  <linearGradient id="z" x1="1.387" x2="1.0474" y1="4.073" y2="3.786" gradientUnits="userSpaceOnUse" xlink:href="#c"/>
  <linearGradient id="ab" x1="3.6087" x2="3.77" y1="6.071" y2="5.9927" gradientUnits="userSpaceOnUse" xlink:href="#a"/>
  <linearGradient id="ac" x1="3.3361" x2="3.5632" y1="6.7789" y2="6.6698" gradientUnits="userSpaceOnUse" xlink:href="#a"/>
  <linearGradient id="ad" x1="2.3986" x2="2.5454" y1="6.4413" y2="6.372" gradientUnits="userSpaceOnUse" xlink:href="#a"/>
  <linearGradient id="ae" x1="7.0679" x2="7.6792" y1="5.7165" y2="5.4369" gradientUnits="userSpaceOnUse" xlink:href="#a"/>
  <linearGradient id="af" x1="3.5482" x2="3.7048" y1="6.2972" y2="6.2342" gradientUnits="userSpaceOnUse" xlink:href="#a"/>
  <linearGradient id="ag" x1=".59202" x2=".84188" y1="7.0188" y2="6.9097" gradientUnits="userSpaceOnUse" xlink:href="#a"/>
  <linearGradient id="ah" x1="3.4994" x2="3.6466" y1="6.4944" y2="6.4402" gradientUnits="userSpaceOnUse" xlink:href="#a"/>
  <linearGradient id="ai" x1="2.7134" x2="2.2521" y1="5.0541" y2="4.5063" gradientUnits="userSpaceOnUse" xlink:href="#a"/>
  <linearGradient id="aj" x1="4.6449" x2="4.796" y1="6.131" y2="5.6248" gradientUnits="userSpaceOnUse" xlink:href="#a"/>
  <linearGradient id="ak" x1="4.6292" x2="4.8047" y1="6.4048" y2="6.3444" gradientUnits="userSpaceOnUse" xlink:href="#a"/>
  <linearGradient id="al" x1="5.462" x2="5.9592" y1="3.6068" y2="2.7297" gradientUnits="userSpaceOnUse" xlink:href="#a"/>
  <linearGradient id="am" x1="4.6871" x2="4.995" y1="7.1044" y2="7.0033" gradientUnits="userSpaceOnUse" xlink:href="#a"/>
  <linearGradient id="an" x1="5.5626" x2="6.3686" y1="6.8898" y2="6.0262" gradientUnits="userSpaceOnUse" xlink:href="#a"/>
  <linearGradient id="ao" x1="6.2682" x2="6.8995" y1="7.8663" y2="7.2224" gradientUnits="userSpaceOnUse" xlink:href="#a"/>
  <linearGradient id="ap" x1="7.1909" x2="7.3525" y1="8.6591" y2="8.5204" gradientUnits="userSpaceOnUse" xlink:href="#a"/>
  <linearGradient id="aq" x1="6.8403" x2="7.1323" y1="8.2446" y2="8.0394" gradientUnits="userSpaceOnUse" xlink:href="#a"/>
  <linearGradient id="ar" x1="7.0326" x2="7.2851" y1="8.4889" y2="8.329" gradientUnits="userSpaceOnUse" xlink:href="#a"/>
  <linearGradient id="as" x1="7.3586" x2="7.7502" y1="8.8825" y2="8.6417" gradientUnits="userSpaceOnUse" xlink:href="#a"/>
  <linearGradient id="at" x1="2.3873" x2="2.5497" y1="5.9966" y2="5.9496" gradientUnits="userSpaceOnUse" xlink:href="#a"/>
  <linearGradient id="av" x1="4.6641" x2="4.8503" y1="6.6316" y2="6.5783" gradientUnits="userSpaceOnUse" xlink:href="#a"/>
  <linearGradient id="aw" x1=".68829" x2=".83503" y1="6.7162" y2="6.6755" gradientUnits="userSpaceOnUse" xlink:href="#a"/>
  <linearGradient id="ay" x1="6.641" x2="7.6242" y1="4.2893" y2="3.8487" gradientUnits="userSpaceOnUse" xlink:href="#a"/>
  <linearGradient id="az" x1="4.7018" x2="4.8742" y1="6.8322" y2="6.7867" gradientUnits="userSpaceOnUse" xlink:href="#a"/>
  <linearGradient id="ba" x1="1.5072" x2="1.1858" y1="5.7421" y2="4.2338" gradientUnits="userSpaceOnUse" xlink:href="#b"/>
  <linearGradient id="bb" x1="2.4481" x2="2.5904" y1="6.2361" y2="6.2018" gradientUnits="userSpaceOnUse" xlink:href="#a"/>
  <linearGradient id="bd" x1="2.8859" x2="3.4202" y1="5.1509" y2="3.2518" gradientUnits="userSpaceOnUse" xlink:href="#b"/>
  <linearGradient id="be" x1="4.3966" x2="5.6766" y1="4.8023" y2="2.8461" gradientUnits="userSpaceOnUse" xlink:href="#b"/>
  <linearGradient id="bf" x1=".69168" x2=".85375" y1="6.4687" y2="6.4314" gradientUnits="userSpaceOnUse" xlink:href="#a"/>
  <linearGradient id="bg" x1=".67743" x2=".83564" y1="6.5808" y2="6.5459" gradientUnits="userSpaceOnUse" xlink:href="#a"/>
  <linearGradient id="bh" x1="2.3765" x2="2.6909" y1="6.6444" y2="6.5813" gradientUnits="userSpaceOnUse" xlink:href="#a"/>
  <linearGradient id="bi" x1="1.8358" x2="2.0921" y1="5.4094" y2="4.1424" gradientUnits="userSpaceOnUse" xlink:href="#b"/>
  <linearGradient id="bj" x1="4.9736" x2="5.1492" y1="5.8122" y2="5.2263" gradientUnits="userSpaceOnUse" xlink:href="#b"/>
  <linearGradient id="bk" x1="5.6962" x2="6.3176" y1="5.0578" y2="4.1109" gradientUnits="userSpaceOnUse" xlink:href="#b"/>
  <linearGradient id="bl" x1="2.4321" x2="2.5752" y1="6.0982" y2="6.0702" gradientUnits="userSpaceOnUse" xlink:href="#a"/>
  <linearGradient id="bm" x1="4.1936" x2="4.3366" y1="5.337" y2="4.5315" gradientUnits="userSpaceOnUse" xlink:href="#b"/>
  <linearGradient id="bn" x1="6.9197" x2="7.8704" y1="4.8183" y2="4.6608" gradientUnits="userSpaceOnUse" xlink:href="#a"/>
  <linearGradient id="i" x1="6.6172" x2="6.9367" y1="5.234" y2="4.784" gradientUnits="userSpaceOnUse" xlink:href="#b"/>
  <linearGradient id="j" x1="6.2397" x2="7.1489" y1="4.0101" y2="3.0914" gradientUnits="userSpaceOnUse" xlink:href="#a"/>
  <linearGradient id="k" x1="2.1953" x2="1.6588" gradientUnits="userSpaceOnUse" xlink:href="#a"/>
  <linearGradient id="p" x1="3.0534" x2="2.8551" y1="5.5202" y2="4.428" gradientUnits="userSpaceOnUse" xlink:href="#b"/>
  <linearGradient id="aa" x1="2.0388" x2="2.0175" y1="5.2609" y2="4.8347" gradientUnits="userSpaceOnUse" xlink:href="#a"/>
  <linearGradient id="au" x1="6.2575" x2="6.5688" y1="4.9566" y2="4.387" gradientUnits="userSpaceOnUse" xlink:href="#b"/>
  <radialGradient id="l" cx="1.6442" cy="4.6439" r=".6814" gradientUnits="userSpaceOnUse">
   <stop stop-color="#0c0d10" offset="0"/>
   <stop stop-color="#0c0d10" offset=".54902"/>
   <stop stop-color="#fff" offset="1"/>
  </radialGradient>
 </defs>
 <g transform="matrix(54.124 0 0 54.124 -.00019 .00031)">
  <path d="m1.29474,3.55006c.02508.05983.05524.08428.11634.10302 .11518-.09589.21608-.17893.25985-.22807 .08045-.09032-.02939-.16608-.05461-.11967-.03382.06221-.17649.14299-.32158.24472z" fill="#23201d"/>
  <path d="m2.23924,3.06769c.12642.04696.21949.19217.37326.20665 .05252.00494.07676.04534.10022.06587l-.00736.01185-.01054.018-.03744.02138-.03372-.00292-.05524-.02427-.02222-.00209-.02223-.00209c-.04156-.0039-.06309-.04361-.05209-.06761-.08922-.05172-.12115-.10571-.23333-.14069-.18933-.05902-.33722-.11505-.56689-.1412-.10559-.01205-.17558-.03686-.26384-.05959-.05809-.01495-.12116-.02609-.19342-.02863-.07838-.00277-.15932.00608-.23481-.00223-.12322-.01359-.20991-.04599-.3033-.08584-.11621-.04958-.218-.12639-.29119-.1938l-.07098-.07311c-.05813-.07859-.12852-.15406-.05985-.2482 .01834-.02515.0426-.04643.09439-.06368 .03385-.01127.08176-.0142.11907-.01201-.02248-.01635-.05137-.02869-.07671-.04383-.17879-.10677-.25455-.28104-.30442-.417-.03499-.09538-.07094-.19302-.08189-.28865-.01694-.14802.01272-.30965.07633-.45476 .02885-.0658.05635-.13916.19117-.17585 .04088-.01113.08652-.01748.13326-.01848 .1132-.0024.20168.02872.28531.05776 .31304.10871.56911.33082.74041.54415 .20583.25635.37705.5218.58534.77667 .23011.28157.47503.56476.73452.83739 .10412.10941.19405.20279.19467.20716l-.02583.02266c-.06562.00291-.07126.02811-.13688.03101l-.00736.01185-.03534.00277-.00174-.0188c.0127-.0718-.0462-.08505-.0969-.13292-.045-.0425-.12035-.07887-.14607-.1207l-.05165-.01241-.3472-.10897-.25614-.0905c.11498.066.2512.15692.39863.21563zm-.82061-.21925c.05472.01424.03648-.01754.10815.02461-.00825.00183-.02433.01324-.02187.01985-.02417-.01595-.05294-.03076-.08629-.04445zm.03706-.03622c-.14602-.12665-.59363-.28229-.75999-.33326l.03654-.03113 .11507.03117c.31861.09068.6494.18898.8782.33415 .09575.06075.20098.11091.29666.17281l.10445.06706c-.02885.00952-.09659-.01733-.20013-.04313-.13764-.03431-.29945-.10291-.38472-.13916-.04735-.02013-.05496-.03161-.08607-.0585zm.80947.32386c-.12807-.03411-.23693-.07655-.36517-.10629-.07094-.01646-.11211-.02112-.1825-.03799-.03455-.00828-.25929-.08104-.17656-.11305 .11666.05325.22639.10648.3762.14039 .12966.02935.24441.07126.34802.11693zm-1.12626-.82192c.00193-.04931.03234-.08086.04942-.11743 .04196-.0227.0724-.09163.09018-.12027s.04745-.01241.07841.01245c.20537.16491.31387.36319.56283.51447 .02037.01237.02773.02296.03868.03874l-.01761-.00523c-.20222-.12875-.55277-.21181-.80192-.32273zm.81731.34656c.16432.09526.37377.25487.49367.36732-.68239-.20439-.77058-.29372-1.13863-.48044-.13527-.06709-.28545-.1276-.43878-.18424l.1363-.03504c.02789-.00014.0689-.00086.10753-.00869 .24852.12342.65739.21688.83991.34109zm-.3778-.63757c.05487-.08834-.09442-.20279-.04888-.30212 .03119.01422.05577.03819.07614.06469 .32915.42843.6761.86246 1.0443,1.27996-.26765-.13161-.41694-.26234-.46174-.29679s-.07161-.08098-.12235-.11039c.04264-.09301-.46359-.62004-.48746-.63535zm.35768.57543c-.31513-.20464-.45018-.46941-.60218-.54189-.01308-.0084-.03357-.04211-.04285-.05653-.08589-.1336-.29635-.27208-.31359-.41057-.0005-.004-.04526-.0913.01765-.08538 .03028.00285.0576.05404.07432.0697 .01209.02131.08221.08594.13798.13155 .1045.08549.23135.18331.29804.27947 .01749.03081.07596.07668.10334.10751 .07242.0815.45442.47977.43117.56989-.06375-.006-.06909-.04116-.10387-.06375zm-1.03599-1.3185c-.07023-.07872-.11041-.15872-.18064-.24033-.03205-.03724-.05767-.07603-.05109-.12117 .20412.07326.62294.33278.59873.51672-.1242-.02741-.31211-.09372-.367-.15523zm-.15749-.17839c.01725.02485.02135.04709-.03055.05678-.12113.02263-.18261-.01017-.31416.05752 .06005.05632.08563.10605.1803.14015 .075.02701.11412.06107.15362.10214-.028.04507-.1539.07228-.19669.12582s-.05055.10729-.11126.15513c-.07476-.00703-.17029-.02682-.22844-.05249 .03617.02831.14641.05702.2119.06318 .01671.00024.09189.02564.11928.03693 .10837.04465.64628.37322.63094.42156-.01677.027-.02723.08218-.0631.10158-.0353.00522-.06606.0126-.09994.00941-.02646.01243-.10009.03266-.14728.03402-.12326-.03994-.2345-.09359-.34915-.10582-.06216-.05102-.13542-.08197-.17817-.13437-.21762-.29459-.37337-.67839-.24066-1.02237 .02121-.05496.06335-.14881.16493-.19482 .0959-.04344.27654-.03721.35129.00059 .05327.02694.03852.06716.08422.11718 .02716.02972.04178.05746.06291.0879zm-.08889.2683 .06054-.02705c.04023-.01549.05629-.00958.09669-.00568s.06231-.00793.09928-.00731 .05548.01882.08891.03526c-.01397.02249-.06061.05519-.03839.07435 .02511.02166.01927.03732.00104.06152-.0796-.00749-.13298-.03322-.20574-.04549-.02026-.02978-.06418-.05944-.10232-.0856zm.11052-.21359c.04778.03435.06167.09348.13889.15265-.06363.03723-.11828-.00191-.19073.02134-.03702.01188-.07383.0274-.0844.02641-.09543-.00898-.16491-.10139-.20293-.13928 .15798-.06773.21503-.01646.33916-.06111zm.62718,1.47605c-.17582-.06552-.3663-.1187-.53386-.16445l-.23465-.05874c-.10588-.03266-.20047-.08298-.22785-.10326-.0088.00909.05885.05248.15496.08791 .05295.01951.11041.03805.16772.04919l-.03887.03041c-.24621-.0777-.33459-.08452-.3908-.08876 .28192.0397.76544.22318 1.06011.38346 .04104.02232.07152.04928.11044.07267-.02875.00949-.06866-.00509-.08836-.01361-.17063-.07381-.64112-.11997-.84078-.11894 .30585.02026.61025.06296.86185.14424 .11895.03843.16797.11253.30221.14332-.07532.00312-.22877-.04015-.30135-.05975-.17394-.04698-.30185-.00907-.43941-.03044-.36872-.05726-.56715-.25998-.68184-.43713-.0411-.0635-.03435-.14776.06683-.19219 .05341-.02345.10606-.02716.15654-.02051 .12158.01602.25539.07789.35396.11391 .14501.05299.49852.18404.54316.26268zm-.26072-.76625c.03472.047.13922.12609.15526.17333l-.01396.0241c-.03149.03846-.03967.08124-.08547.11704-.29021-.21549-.53119-.36439-.69906-.42511-.01711-.00619-.03378-.01073-.04904-.01426 .06978-.04803.06978-.10274.10851-.15359 .04231-.05554.15982-.07638.19648-.12287 .07339.01045.13168.03737.19557.04797 .01778.14507.09759.22598.19171.35338zm.24246-.34944c.03974.03739.0508.0757.0915.11472 .03089.02961.04125.06357.03566.08254-.02902.09844.03901.15246.05898.24726-.0459-.00326-.10002-.07199-.12497-.08966-.13493-.1526-.23552-.18187-.31147-.27459-.03883-.04741-.05902-.09911-.12945-.10898-9e-005-.02332.00296-.04309-.00953-.05641s.01817-.03342.03383-.05874c.09496.05818.30765.09889.35545.14387z"/>
  <path d="m1.41863,2.84844c.05472.01424.03648-.01754.10815.02461-.00825.00183-.02433.01324-.02187.01985-.02417-.01595-.05294-.03076-.08629-.04445zm.03706-.03622c-.14602-.12665-.59363-.28229-.75999-.33326l.03654-.03113 .11507.03117c.31861.09069.6494.18898.8782.33415 .09575.06075.20098.11091.29667.17281l.10444.06706c-.02885.00952-.09659-.01733-.20013-.04313-.13764-.03431-.29944-.10291-.38472-.13916-.04735-.02013-.05496-.03161-.08607-.0585zm.80947.32386c-.12807-.03411-.23693-.07655-.36516-.10629-.07094-.01646-.11211-.02112-.1825-.03799-.03455-.00828-.25929-.08104-.17656-.11305 .11666.05325.22639.10648.3762.14039 .12967.02935.24441.07126.34802.11693zm-1.12626-.82192c.00193-.04931.03234-.08086.04942-.11743 .04196-.0227.0724-.09163.09018-.12027s.04745-.01241.07841.01245c.20537.16491.31387.36319.56283.51447 .02037.01237.02773.02296.03868.03874l-.01761-.00523c-.20222-.12875-.55277-.21182-.80192-.32273zm.81731.34656c.16432.09526.37377.25487.49367.36732-.68239-.20439-.77058-.29372-1.13863-.48044-.13527-.06709-.28545-.1276-.43878-.18424l.1363-.03504c.02789-.00014.0689-.00086.10753-.00869 .24852.12342.65739.21688.83991.34109zm-.3778-.63757c.05487-.08834-.09442-.20279-.04888-.30212 .03119.01422.05577.03819.07614.06469 .32915.42843.6761.86246 1.0443,1.27996-.26765-.13161-.41694-.26234-.46174-.29679s-.07161-.08098-.12235-.11039c.04264-.09301-.46359-.62004-.48746-.63535zm.35768.57543c-.31513-.20464-.45018-.46941-.60218-.54189-.01308-.0084-.03357-.04211-.04285-.05653-.08589-.1336-.29635-.27208-.31359-.41057-.0005-.004-.04526-.0913.01765-.08538 .03028.00285.0576.05404.07432.0697 .01209.02131.08221.08594.13798.13155 .1045.08549.23135.18331.29804.27947 .01749.03081.07596.07669.10334.10751 .07242.0815.45442.47977.43117.56989-.06375-.006-.06909-.04116-.10387-.06375zm-1.03599-1.3185c-.07023-.07872-.11041-.15872-.18064-.24033-.03205-.03724-.05767-.07603-.05109-.12116 .20412.07326.62294.33278.59873.51672-.1242-.02741-.31211-.09372-.367-.15523zm-.15749-.17839c.01725.02485.02135.04709-.03055.05678-.12113.02263-.18261-.01017-.31416.05752 .06005.05632.08563.10605.1803.14015 .075.02701.11412.06107.15362.10214-.028.04507-.1539.07228-.19669.12582s-.05055.10729-.11126.15513c-.07476-.00703-.17029-.02682-.22844-.05249 .03617.02832.14641.05702.2119.06319 .01671.00024.09189.02564.11928.03693 .10837.04465.64628.37322.63094.42156-.01677.027-.02723.08218-.0631.10158-.0353.00522-.06606.0126-.09994.00941-.02646.01243-.10009.03266-.14728.03402-.12326-.03994-.2345-.09359-.34915-.10582-.06216-.05102-.13542-.08197-.17817-.13437-.21762-.29459-.37337-.67839-.24066-1.02237 .02121-.05496.06335-.14881.16493-.19482 .0959-.04344.27654-.03721.35129.00059 .05327.02694.03852.06716.08422.11718 .02716.02972.04178.05746.06291.0879zm-.08889.2683 .06054-.02705c.04023-.01549.05629-.00958.09669-.00568s.06231-.00793.09928-.00731 .05548.01882.08891.03526c-.01397.02249-.06061.05519-.03839.07435 .02511.02166.01927.03732.00104.06152-.0796-.00749-.13298-.03322-.20574-.04549-.02026-.02978-.06418-.05944-.10232-.0856zm.11052-.21359c.04778.03435.06167.09348.13889.15265-.06363.03723-.11828-.00191-.19073.02134-.03702.01188-.07383.0274-.0844.02641-.09543-.00898-.16491-.10139-.20293-.13928 .15798-.06773.21503-.01646.33916-.06111zm.62718,1.47605c-.17582-.06552-.3663-.1187-.53386-.16445l-.23465-.05874c-.10588-.03266-.20047-.08298-.22785-.10326-.0088.00909.05885.05248.15496.08791 .05295.01951.11041.03805.16772.04919l-.03887.03041c-.24621-.0777-.33459-.08452-.3908-.08876 .28192.0397.76544.22318 1.06011.38346 .04104.02232.07152.04928.11044.07267-.02875.00949-.06866-.00509-.08836-.01361-.17063-.07381-.64112-.11997-.84078-.11894 .30585.02026.61025.06296.86185.14424 .11895.03843.16797.11253.30221.14332-.07532.00312-.22877-.04015-.30135-.05975-.17394-.04698-.30185-.00907-.43941-.03044-.36872-.05726-.56715-.25998-.68184-.43713-.0411-.0635-.03435-.14776.06683-.19219 .05341-.02345.10606-.02716.15654-.02051 .12158.01602.25539.07789.35396.11391 .14501.05299.49852.18404.54316.26269zm-.26072-.76625c.03472.047.13922.12609.15526.17333l-.01396.0241c-.03149.03846-.03967.08124-.08547.11704-.29021-.21549-.53119-.36439-.69906-.42511-.01711-.00619-.03378-.01073-.04904-.01426 .06978-.04803.06978-.10274.10851-.15359 .04231-.05554.15982-.07638.19648-.12287 .07339.01045.13168.03737.19557.04797 .01778.14507.09759.22598.19171.35338zm.24246-.34944c.03974.03739.0508.0757.0915.11472 .03089.02961.04125.06357.03566.08254-.02902.09844.03901.15247.05898.24726-.0459-.00326-.10002-.07199-.12497-.08966-.13493-.1526-.23552-.18187-.31147-.27459-.03883-.04741-.05902-.09911-.12945-.10898-9e-005-.02332.00296-.04309-.00953-.05641s.01817-.03342.03383-.05874c.09496.05818.30765.09889.35545.14387z" fill="#fdae00" fill-opacity=".50196"/>
  <path d="m3.84409,5.12001c-.06739.27007-.06152.54398-.02563.81666l-.04206-.02002c.0421.18193.00017.14966.0077.29876l-.03644-.03061-.03629.27503-.02437-.04628c-.03306.0785-.01389.17377-.05004.22264-.00936-.02437-.01256-.04141-.02715-.05015-.06185.10265-.09801.14597-.09972.20806 .02464.01032.09276.05198.09484.18095 .00047-.01492-.0882-.12002-.15734-.08178-.08541.09847-.19707-.04282-.10419-.12186 .03059-.08374.09798-.14472.12651-.22193l-.03337.00215c.03188-.05226.06479-.10413.08039-.16291l-.03678-.001 .10622-.21617-.03094.00484c.006-.04226.01373-.08133.02571-.11377 .01869-.05061.03989-.09436.04865-.14703-.0134-.00053-.02163.00473-.03504.00885 .07641-.36365.03636-.51635.13265-.81733l-.04413.00187c-.05396.0429-.11262.09733-.18789.12071-.06168.01915-.23236.04476-.31515.04476 0,.34209-.41947.34839-.65947.23238-.01043.12141.04259.29224.04259.41209l-.01434-.00222c.02151.0604.01456.08794.0203.14088l-.01513-.00157c.01593.02634.02713.08411.03702.11753l-.01248.00215c.02931.04376.024.09638.01254.14565l-.01766-.00292c-.02765.05346-.03478.11076-.01511.15976 .00243.00605-.0081.00265-.0134.00647 .03984.03902.18537.02037.16291.12703-.01785-.01683-.06583-.06753-.12719-.03535 .00487.0299-.01115.0497-.04807.05941 .01763.0324.07329.05278.11036.05586-.07715.08505-.19048-.04535-.20634-.11913l-.01367.01787c-.05483-.11517.01057-.21922.02635-.33244l-.02006-.00168c.00377-.03352.00799-.05646.00634-.08288l-.01513.00846c-.00295-.03944-.00401-.09448.01024-.12795l-.01148.00604c-.00169-.03208-.00703-.05302-.01298-.07728l-.01301.01052c-.09567-.14284-.07574-.38377-.07629-.55381l-.07871-.0178c-.02812.19947-.03765.29157-.03148.49216 .02367.08582.01576.29059-.02985.35012-.06035-.04802-.12071-.0915-.18108-.13042 .06321.11943.11268.11126.16255.18572-.51524.09883-.54495-.41498-.74103-.55918-.14716-.1091-.22385-.25587-.29995-.41542l-.01211.20141c-.04091.03285-.01853-.00433-.06841.09431-.03267.06457-.10579.2007-.12372.2109 .00562.01127.00224.04161.00093.05817-.01271.1614-.06043.24991-.06043.36339 .00304.04699.01834.09787.01967.12932l-.01965-.01861c.03241.04996 8e-005,.11934-.00207.17385-.00352-.00823-.01389-.00959-.02228-.01517 .02977.03615.01282.10305.01282.14562-.00689-.00931-.00888-.00909-.01916-.01332 .02041.02705.01368.07553.00017.13224-.12733.0133-.0954.25401.08326.21854-.04494.04557-.08318.0702-.15246.04924-.01139.02332-.04414.03309-.07951.03245 .01154.04478.06625.04964.10752.05806-.22919.0905-.17152-.15387-.14274-.26913l-.01767.0005c.01612-.05923.0426-.13145.05505-.1624l-.01644-.00971c.00972-.03069.017-.05648.017-.08843l-.01585-.00038c.01245-.03497.0013-.08391.02782-.11233-.01354.00895-.01372.00246-.02146.00792 .00669-.03766.01406-.09298.01138-.1306 1e-005-.00596-.00839.02448-.03028.02837 .00709-.03786.01135-.1349.01209-.16766 .00689-.13448.0224-.26769.07712-.38496 .02208-.04559.04459-.0801.0728-.1012 .00799-.04976.05472-.11398.076-.16013s.04482-.09946.06869-.14287l.05898-.36332c-.06879.00095-.1111.01974-.14209.03422-.00948.00984-.02535-.00107-.02821-.01087-.04074.01232-.11178.1701-.16986.3353-.00386.01098-.01674.00964-.0339.00336-.05605.16524-.1062.35571-.0877.38022 .00495.11944-.18335.18132-.18652.0384-.01709-.10975.06115-.2996.12861-.47428-.00964-.01294-.02084-.03219-.01339-.04991 .06591-.1567.14901-.29638.22178-.35208 .02253-.02483.0597-.0299.10929-.04411 .00222-.03902.03065-.0262.18802-.04724-.01159-.13392-.0222-.24835.00673-.37952-.00087-.06324-.02846-.17999-.02846-.24912 0-.02602.00717-.03285.0212-.0538 .02892-.3537.02378-.56311.25618-.73092 .04161-.01195.03094.02707.03947.01608 .13065-.10665.27184-.16927.30564-.23786 .03104-.06297.20195.02706.09076.15446-.04397.05037-.14004.13174-.25317.22096-.00741.00514.03496.01703.013.03487-.15957.12945-.26094.28874-.26987.49863 .01048.00143.01907-.00044.02117.01778 .04837-.0595.09032-.10266.15591-.1515 .0575-.06971.14522-.11277.23695-.10392 .03273-.01646.06782-.02583.09608-.02892 .18786-.27578.49759-.55435.8381-.69543 .19405-.0804.40146-.10247.61234-.10499 .17232-.00206.57883.30235.76905.42922-.02546-.94186.8514-.97017 1.59879-.86322 .23964.03428.48582.04896.70798.15391 .07626.03603.13731.07771.1641.12153 .09739.01933.22453.06889.25359.12004 .19976.11039.5926.26423.63848.50629 .02691.02397.05051.05326.07317.08784 .16845.06706.43219.54775.38314.67606 .00651.02229.01512.03825.01843.07857 .12959.17946.1549.41619.14274.63876-.00332.0363-.01628.05477-.04324.06318-.05287.23932-.1205.46147-.24672.66131-.11918.1887-.19037.28128-.27735.4872 .00909-.31655-.12363-.33318-.33925-.54742-.04418-.04391-.07569-.08725-.11394-.12977-.1221-.07185-.27973-.14674-.40635-.21235-.07924.00486-.10871-.00456-.18503-.03223-.02624.01474-.0377.01674-.06398.00238-.13326-.01886-.47511-.06444-.70531-.17499-.09288.04625-.25108-.01635-.38135-.06595-.02887.00898-.08517-.02397-.11495-.03575-.11105-.04396-.19811-.10192-.33883-.19336-.01153.022-.01715.03741-.0445.06274 .05906.08816.09358.1684.1544.25474 .09921.00151.16354.0248.21628.058 .11205.07054.20456.15265.31263.2233 .05687.03718.11174.06439.1812.0853 .02906.00875.05428.03018.10094.08152 .02431.02675.04453.05733.05435.08501 .0048.01355.00599.02563.00215.03491 .06245,0 .11288.02313.15385.05908 .12678.11124.17578.33163.24015.48126 .04026.09358.08569.18603.14766.27872 .0703.10512.17149.19778.24509.3916-.00055.00937-.01276.03045-.0176.03719 .22501.24352.40209.55495.53122.9343 .00568.01547.00918.02814.00187.04362 .03158.03583.21548.24032.23422.28541l-.02768-.0039c.0391.07237.12577.0958.17089.1913 .00284.0057-.02842-.00672-.02513-.00096 .04732.06847.08099.05756.0786.07924 .08209.01572.15068.02608.22559.0326 .16729-.10134.23284.27093.03759.20504 .00031.07146-.04317.14865-.10026.18211 .03086-.08038.06416-.17654.03822-.20769-.04328-.06461-.19065-.02567-.27035-.07902-.00926.03724-.01002.0516-.00752.07886-.05015-.06404-.0888-.14297-.14265-.23305-.00366.01169-.00731.02539-.01098.03708-.03092-.00826-.1274-.20667-.15374-.24763l-.01696.03224c-.01136-.07835-.09795-.20589-.17323-.30238-.00433.0106-.00304.02011-.00375.03274-.0138-.0085-.01939-.01942-.0267-.03007-.17576-.42078-.366-.73657-.57372-.92565-.01131.00294-.01618.01072-.02749.01367-.16344-.11575-.34976-.55697-.40352-.74614-.03991-.14042-.05498-.32095-.13756-.44412-.03634-.05421-.0798-.06905-.13359-.09118-.01863.0128-.01206.0172-.03243.01357-.04483-.00798-.11691-.05197-.17696-.07689-.12431-.05157-.25739-.0553-.38215-.10046-.04627-.01675-.08238-.0386-.11333-.07456-.00789.21682.00804.43674.03035.65357l-.03433-.02452c.02115.07976.04653.22029.04275.25845l-.03261-.01793c.03078.07193.04999.15632.08077.22826l-.0286-.00445c.00175.03199.05488.20112.05818.20035-.01022-.00639-.02043-.01542-.03065-.01769 .01341.05382.03717.11834.06209.17721 .12236.08568-.01672.25818-.12.14004-.06841.01565-.12485.06206-.1835.10015 .02412-.07558.06366-.14175.14209-.1928-.0121-.08363-.05469-.10978-.0668-.19341l-.0265.0335c-.00305-.07348-.00041-.15136-.02102-.22289-.00911.00824-.02.00758-.02911.01582 0-.09631.00164-.14808-.00364-.23615-.01252.00315-.03039.02383-.04292.03176 .01601-.09938.02627-.20697.04494-.30635-.01566.00319-.01845.01547-.03411.01867 .06387-.27014.07986-.49158.07986-.73942-.09749.01299-.20892-.21937-.2612-.38926-.004.12695-.1956.24082-.28039.09176-.13154-.00061-.17493-.08318-.3025-.11572zm1.37228-.17373c.08937.02115.28527.02841.32301.13695 .20158.06432.42029.11981.61385.14626-.04159-.03429-.38265-.1955-.45062-.23146-.01078.00932-.01661.01073-.02852.00542-.59089-.26409-.65184-.37312-.90246-.56258l-.05882-.02538c-.03836,0-.07935.03199-.10995.06815-.0438.05178-.05181.08571-.04098.15297 .06665.01552.09632.04285.11898.09724 .13474.04536.33924.12104.46665.1721 .04022.01612.0565.01571.06887.04033z"/>
  <path d="m7.7242,4.4271c-.20389-.06276-.39472-.02198-.62737.00273 .17355-.05593.55943-.29433.62737-.00273z" fill="#4d3700"/>
  <path d="m2.56971,5.04176c-.01331.11815-.09617.23588-.09617.32237 0,.03707.02322.07342.02322.11432 0,.14088.04001.27648.0408.41737-.05902-.0775-.16272-.02604-.14024.06356-.06415-.07378-.06096-.46079-.0643-.58974 .09671-.09817.17351-.20878.23669-.32788z" fill="url(#m)"/>
  <path d="m1.51722,5.83751c.06087.02429.09947.04546.1442.06408 .05126.05717.09723.11007.30343.21625 .04143.12441.10583.12882.15099.18643-.39665.03606-.45729-.32201-.59862-.46676z" fill="url(#q)"/>
  <path d="m2.43833,6.03244c-.00047-.04189-.05263-.13224.01689-.1468 .07732-.01619.09172.09822.09611.15485-.06987.03624-.05871-.04221-.11299-.00806z" fill="url(#at)"/>
  <path d="m2.57159,6.15657c-.04485.01224-.08083-.04925-.13444,0-.0014-.04046-.00031-.06802.00524-.08512 .02337-.0719.0382.02189.09677-.00844 .01609.02018.02624.05917.03243.09356z" fill="url(#bl)"/>
  <path d="m2.44819,6.16649c.04285-.0334.07261.02067.11702.0116 .02509.03928.01745.06852.01426.11776-.06514.00902-.0712-.0513-.1296-.05748 .00128-.02483.00306-.04907-.00168-.07189z" fill="url(#bb)"/>
  <path d="m2.53353,6.4625c-.0482.01307-.08238.04295-.10498.08644-.03905-.08881.02102-.19895.04041-.28462 .01868.01209.03817.0391.08548.05173-.00899.03193-.04269.07519-.02091.14644z" fill="url(#ad)"/>
  <path d="m3.72441,6.17332c-.00273.04937-.03139.17943-.03555.21366-.02434-.0708-.07844-.02937-.16033-.03087 .02845-.05746.05357-.14118.08055-.18786 .0275-.00611.08297-.02386.11533.00507z" fill="url(#af)"/>
  <path d="m4.62746,6.5106c.01535-.08943.01865-.17369.03846-.26045 .01935-.0116.08955-.00951.10889.0048 .02052.06363.03068.17236.03164.22165-.06173-.01863-.11723-.01382-.17898.034z" fill="url(#ak)"/>
  <path d="m3.63505,6.57477c-.02996-.07717-.08788-.05857-.15296-.05838 .02007-.02848.04677-.08649.06013-.12754 .05835-.00123.10278-.02912.12172.01731-.01298.04872-.02864.12101-.02888.16861z" fill="url(#ah)"/>
  <path d="m2.51326,6.6273c.0041.01263.03608.05756.10063.07131-.11315.03807-.24545-.1718-.08778-.20952 .05583.04483.17134.0318.17284.09496-.03174-.04364-.07118-.03061-.12489-.03448-.02051-.00148-.04209-.02327-.07309-.004-.02232.01386-.01653.06548.02311.06664-.04985-.03337.00147-.06688.0267-.04101 .01419.01454.01341.04183-.03753.05611z" fill="url(#bh)"/>
  <path d="m.69264,6.64192c.00926-.00839.05067-.02153.06233.01447s.08249-.05249.05229.13139c-.10242-.00473-.03904-.0596-.1214-.08097 .00937-.02311.00444-.04228.00678-.06489z" fill="url(#aw)"/>
  <path d="m2.17022,6.23297c-.20085-.17516-.33597-.17008-.46767-.33435-.06085-.07589-.00622-.1656.00977-.25209 .01019-.05509.00845-.12391.01504-.18097 .026-.22525.32661-.00636.414-.12628l.07106.06649c-.00132.04626-.05654.37626-.03026.52191 .01795.09602.01265.21556-.01193.30529z" fill="url(#k)"/>
  <path d="m2.65604,4.29564c-.01524.16488-.07885.5054-.08654.70975-.07792.13013-.15735.24991-.23947.33815 0-.13337-.02063-.76513.10144-1.01954 .02984-.0622.06744-.10254.11737-.10511 .03987-.00205.10107.02463.1072.07675z" fill="url(#ai)"/>
  <path d="m2.59284,4.97448c.01374.14257-.09764.27429-.09764.3928 0,.03892.02438.07411.02438.11607 .16434.07229.34685.09581.51745.02044-.20693-.08375-.36617-.35458-.44419-.5293z" fill="#4d3400"/>
  <path d="m4.16891,5.21766c-.06183-.56102-.00541-.31975-.04665-.71693 .07256.10242.23224.44519.28669.60298 .01418.12035-.16307.26407-.24005.11395z" fill="url(#bm)"/>
  <path d="m4.3993,5.00643c-.07331-.19075-.17562-.38935-.25604-.52456-.07503-.12614-.05534-.19465.11075-.20567 .1339.17247.20624.37859.29209.57603 .0223.0513.05005.09858.07954.14614 .0866.13967.21489.33057.21489.40372 0,.07625-.09331.10447-.15335.10447-.14113-.02764-.23719-.36825-.28788-.50013z" fill="url(#n)"/>
  <path d="m4.70898,5.5336 .07349-.01543c-.00689.24015-.00935.47957.01532.71948-.04507-.02033-.09232-.02791-.15464-.01144 .05606-.20563.05965-.45666.06583-.69261z" fill="url(#aj)"/>
  <path d="m5.30405,5.51954c-.06601.08332-.05387.20336.02666.28184-.13367-.07295-.2778-.05485-.41482-.11847-.05913-.02746-.11455-.06667-.11455-.09557-.0014-.02322.00023-.05681.00139-.08002 .05202-.0302.09073-.11744-.01063-.27012 .08469,0 .14741.0223.20526.05893 .11108.07035.19232.15139.30668.22342z" fill="url(#bj)"/>
  <path d="m3.76274,4.12074c0,.26028-.09488.73324-.09488.97958-.08353.05592-.10589.09932-.23676.12314l-.25238.02623c-.03979-.34078-.23451-.64393-.50308-.96011-.0019-.01249-.00433-.023-.01053-.03548-.00357-.22811.13156-.35098.13156-.48161 0-.14585-.17172-.37648-.2534-.51601 .20727-.06964.38704-.10344.60507-.0983 .11614,0 .46548.22381.55434.29393 .02648.29691.03.3703.06005.66864z" fill="url(#bd)"/>
  <path d="m4.24202,4.25312c-.18193.01572-.18782.10929-.14642.20937 .0372.29164-.00635.39052.0483.7539-.178-.00249-.12675-.12759-.4526-.12928 .00614-.3143.10277-.62533.10277-.96142-.0193-.21652-.05115-.43315-.06264-.65268 .32281.18858.49582.41364.5106.78012z" fill="url(#t)"/>
  <path d="m4.42344,4.34795c-.1065-.12205-.11018-.12651-.17147-.22241-.04754-.3116-.1632-.40816-.31708-.55283-.00744-.46463.20178-.70056.47603-.81362-.07532.20151-.10965.33674-.10658.48925 .00323.1605.04353.31827.09276.47009 .0149.04593.02148.09262.02306.13972 .00098.02934-.03183.18859-.03591.26899-.00361.0713.03821.14672.03918.22081z" fill="url(#u)"/>
  <path d="m4.48932,2.73248c.13603-.03186.26902-.05152.39753-.05336 .27167.37867.17635,1.09939-.16244,1.26048 0-.15079.04405-.25218.07122-.34798 .01575-.05552.03854-.10858.02922-.16721-.02027-.12752-.10714-.17937-.09902-.35736 .00425-.0931-.01539-.14745-.07347-.19527s-.13404-.04736-.16305-.13931z" fill="url(#s)"/>
  <path d="m5.51268,3.00814c-7e-005-.02152.00125-.04308.00125-.06458 0-.14218.06197-.1887.15735-.20773-.28714-.02998-.52954-.06644-.7585-.05847 .23763.35339.22619,1.10099-.21159,1.30105 0-.12532.03376-.26664.07046-.39458 .01933-.06739.03618-.11433.02756-.15985-.02094-.11066-.11379-.18604-.09868-.35426 .00246-.11395-.03471-.16094-.0681-.18105-.10032-.06042-.11817-.03767-.16656-.14887l-.03173.01158c-.06717.16716-.1057.32024-.10342.48933 .00189.1401.0318.29186.09666.47351 .01463.05203.01935.09904.01869.14347-.00133.08898-.03739.17854-.03426.26597s.03394.17542.03394.26862c-.09-.06025-.12256-.13624-.18577-.20893v.06964c.14887.186.21886.3773.31197.58875l.04543.09426c.06713-.0525.08921-.25316-.0518-.27366-.01104-.0016-.01818-.01117-.02246-.02448-.0114-.07542.00203-.12243.04257-.16704s.08972-.07931.12805-.0792c.02963,8e-005 .05431.01429.07176.02821 .29979.23909.52374.41159.8985.5592l.00852-.1312c-.15962-.11913-.35415-.38675-.2762-.56183 .04006-.08998.12869-.0678.27176-.0678 .04587-.03071.11144-.1712.12515-.22808-.22431-.18959-.15602-.2672-.00904-.4582-.12709.02564-.26197.0304-.39179.04335-.38735.03864-.12416-.22616.00015-.34193 .05598-.05213.10046-.11559.10012-.22516z" fill="url(#be)"/>
  <path d="m6.35198,2.97548c-.0997-.1275-.44276-.22002-.6056-.22681-.15057,0-.20923.07002-.20923.19997 0,.01912-.00035.03827-.00052.05737-.00116.13276-.04709.19802-.10323.2468-.10381.09022-.36412.33503-.02184.30145 .13016-.01277.27727-.02376.40436-.05074 .12309-.02614.26338-.00921.36048-.10649 .14501-.14528.06602-.27906.17558-.42155z" fill="url(#al)"/>
  <path d="m6.599,3.08898c.03319-.0063-.12291-.09772-.22594-.09541-.12811.1577.00666.21743-.18402.43178l.04733.14539c.03676-.03848.05577-.09798.07896-.15463 .05739-.1402.17321-.22911.28367-.32713z" fill="#4d3700"/>
  <path d="m7.1756,3.57226c-.0774.00902-.17297.11895-.21401.16754 .12269-.00178.25062-.07217.36374-.05674 .0157.02022-.07233-.11983-.14973-.11081z" fill="#4d3500"/>
  <path d="m6.56998,4.34463-.01309.01637c.12974.07004.39469.06556.45363.05955 .03921-.004.07204-.00998.09289-.01783 .185-.06964.40375-.22637.60491-.09169-.00327-.14657-.23233-.53389-.36542-.60402-.14054,0-.27101.05709-.4063.06212l-.11068.10425c0,.1658-.15987.34126-.23221.44926l-.02322.02321-.00051-.00122z" fill="url(#ay)"/>
  <path d="m6.91313,4.72024c0,.1446.20804.26199.3368.27594 .15005.01625.28516-.01903.43483.01229 .08451.01769.13202.06607.17085.09798 .0058-.02641.00701-.04867.0084-.073 .01289-.22511-.01028-.36918-.13192-.57642-.16445-.08433-.47993.00092-.68404-.00598 .0044.01393-.08828.2093-.13492.26919z" fill="url(#bn)"/>
  <path d="m6.99237,5.20478c.45384-.00466.42194.59954.39766.88529 .12487-.21237.35512-.52777.36474-.71118 0-.23094-.22564-.31554-.42978-.30439-.12129.00662-.24037.05013-.33261.13028z" fill="url(#ae)"/>
  <path d="m7.77123,5.34669c.02213-.07733.04014-.14262.0542-.22398-.16216-.15085-.22734-.08461-.59204-.10609l-.10465.0795c.41792-.15333.66788.10869.64248.25057z" fill="#4d3500"/>
  <path d="m6.53465,5.20478c.1844-.0906.26443-.01517.35938-.06989 .12524-.07218-.0326-.25226-.08476-.32172-.12446.08331-.23917.23824-.27462.39161z" fill="url(#i)"/>
  <path d="m7.32686,6.08365c.01028-.12685-.03028-.45167-.15494-.57194-.06048-.05835-.17114-.0903-.23305-.0376-.02422.02063-.03881.04986-.04328.10209 0,.0367.04131.08879.09317.13942 .14554.14208.26279.19561.3381.36802z" fill="#925e00"/>
  <path d="m6.81415,5.55432c.01533.00902.0404.02643.05683.03329 .00629-.14473.10753-.19455.24756-.14297 .07512.02767.13022.11303.1673.21899 .06495.18558.0654.34171.05767.53531 .04665-.15954.04766-.34192.03341-.52346-.02145-.27318-.14257-.45161-.41469-.44837-.12622.09652-.14931.14238-.14808.32722z" fill="url(#h)"/>
  <path d="m6.51763,5.40129c.09248.04793.1795.09515.27346.14009-.01049-.19144.05545-.24993.17201-.3446 .08132-.06604.16598-.12089.24608-.18841-.11178-.02003-.29135-.12154-.31381-.26648-.02167.01689-.03986.03972-.06945.05662 .05128.07656.14516.16028.13928.26059-.0023.03922-.02109.07574-.06495.09818-.10426.05334-.21279-.01724-.37481.07638-.01336.05351-.01058.11409-.00781.16761z" fill="#925f00"/>
  <path d="m6.23379,5.28603c.02671.05565.00059.08178.05112.05844 .05623.01118.07864.03223.12492.03086-.0675-.02674-.12596-.06878-.17604-.0893z" fill="#926700"/>
  <path d="m6.23379,5.35567c-.02286-.04335-.00044-.05879-.0592-.09946-.18423-.02701-.2953-.05148-.63002-.14869 0,.03611-.00246.05696-.01546.07646 .0872.05961.61754.16676.70467.17169z" fill="#927200"/>
  <path d="m6.02693,4.91247c.01906.01241.07914.05009.07914.07177 0,.08587-.05624.17921.01161.19732 .02419-.33118.21494-.58924.40334-.79785 .06168-.07711.11751-.15772.17265-.23972 .02882-.04287.09902-.1935.10357-.24809-.18639.15491-.45166.08261-.58531.1113 0,.10007.11474.13367.11474.19937s-.05847.18567-.10114.22259c-.08504.07356-.29721.01286-.27992.28404l.00343.03488c.00946.07051.0342.13594.07789.1644z" fill="#926e00"/>
  <path d="m6.99486,8.3082c.04593-.05942.07028-.03566.15428-.03511-.06623-.09266-.15214-.18251-.22212-.26674-.04203-.03049-.06295-.01631-.10352.03546 .06164.08907.13007.16183.17137.26639z" fill="url(#aq)"/>
  <path d="m7.574,8.94167c.04344-.04202.06076-.10582.05985-.16541 .15611.0529.12504-.17542.02589-.17603-.01856-.00011-.05154.00952-.06181.03691-.00326-.01886.00382-.02609-.01648-.02858l-.20537-.02601c-.03424.01581-.05718.03281-.05389.09089 .041.04475.18736.03009.24906.05807 .00213-.01254.00137-.03026.01136-.03756-.00404.06155.0268.04022.03268.10062-.00209.05013-.02256.09877-.04128.14711z" fill="url(#as)"/>
  <path d="m7.18045,8.51976c.01647.03608.08646.1467.10989.17878 .02403-.05438-.00459-.09782.07265-.13167-.03528-.03105-.04963-.04648-.07724-.08584-.02742.00052-.08599-5e-005-.1053.03874z" fill="url(#ap)"/>
  <path d="m7.14803,8.54103c.01774-.06643.08239-.08461.15393-.07463-.02086-.04341-.13557-.12396-.16515-.17317-.05048-.00169-.09865-.01633-.12109.0237 .0176.04788.10531.18732.13232.22411z" fill="url(#ar)"/>
  <path d="m4.87535,6.88782c-.0175-.05268-.0313-.10783-.04302-.16436-.02346-.0196-.10831-.00242-.13178.01596 .01042.05547.01509.11439.01583.17566 .04417-.03757.07019-.07424.10146-.07362s.04596.02207.0575.04636z" fill="url(#az)"/>
  <path d="m4.66497,6.51553c-.00267.06524.00865.14563.00406.2089 .04582-.03068.11167-.05659.18309-.02232l-.06876-.20626c-.0343-.01043-.09049-.00313-.11839.01969z" fill="url(#av)"/>
  <path d="m4.68436,7.27839c.06005-.04296.07815-.05771.14219-.071-.00466-.00121.01025-.03613.02109-.03734-.02826.05634.07195.10139.11103.04107s-.02316-.1336-.07861-.096c.01239-.03029.03403-.03535.03843-.03459-.02384-.06472-.0471-.13459-.0647-.18036-.03609-.07078-.07894-.00156-.10875.02617 0,.07524.05385.14021.06589.21148-.04165.02315-.11164.0845-.12657.14057z" fill="url(#am)"/>
  <path d="m6.39721,7.05336c-.03045.0146-.05379.04049-.09322.03412-.03333-.00539-.03626.01468-.06671.02928 .23491.2372.41963.54551.55864.91855 .01507-.01104.02178-.02322.02983-.03343 .02415-.03065.07228-.04737.10467-.02299-.1331-.37749-.3122-.68389-.53321-.92553z" fill="url(#ao)"/>
  <path d="m3.58659,6.14496c.06965.00111.10585-.03862.17228.0175-.00623-.07941.0332-.10723-.01146-.24965-.03013-.01152-.06027-.01152-.0904,0-.01867.11753-.06426.11664-.07042.23214z" fill="url(#ab)"/>
  <path d="m3.48901,6.54661c-.06169.12604-.09044.13176-.11092.18735-.01811.04923.04056.03077.02835.07455-.01648-.02219-.03472-.0255-.04933-.01817-.05066.02541-.02721.11752.02955.11632 .0343-.00072.06178-.04092.03644-.06963 .02552.00095.02688.03669.02491.04105 .04975-.02714.09141.00214.12697.03295-.01848-.07135-.06285-.09113-.09484-.10447 .02853-.10921.06426-.13895.11273-.23659-.01391-.03124-.0612-.03231-.10386-.02337z" fill="url(#ac)"/>
  <path d="m1.56103,5.36826c-.00113-.04549-.12863-.22569-.20498-.29022-.05308-.04486-.1248.01504-.1248.07695s.04122.12658.0853.16769 .08558.04918.11618.0848c.06376.07422.01249.16242.0738.28302-.07594-.03299-.11748-.0322-.16077-.03305 .01163.04356.14434.12898.18577.15089-.02972-.06489-.00161-.10754.08134-.1202-.04747-.09897-.04911-.20992-.05183-.31989z" fill="url(#g)"/>
  <path d="m1.00463,4.27715-.00719.02227c0,.07547.08407.71136.22967.49401-.0518-.2337-.07484-.31259-.04898-.5495-.0311.02082-.16006.12202-.17349.03322z" fill="url(#ax)"/>
  <path d="m1.52952,3.99545c-.244.04884-.25376.40283-.23113.58974 .02106.17397.13972.69926.41783.62598 .34342-.09049.18195-1.28951-.1867-1.21572z" fill="url(#l)"/>
  <path d="m2.15553,5.31619 .0847.08341c.02691.0047.04969.01281.07659.01752-.00021-.01888-.00205-.04846-.00419-.08968-.00732-.14133-.03958-1.36245.33149-1.09967 .0043-.24727.1275-.33157.1275-.46117 0-.10287-.19171-.40261-.25442-.49624-.25906.11567-.45652.22674-.79602.65759 .51139-.00708.6294.9751.43433,1.38822v1e-005z" fill="url(#r)"/>
  <path d="m5.21921,4.96728c.00018.0613-.02405.11188-.07142.15178 .12346.03769.25305.09554.34737.05893 .02738-.01131.04056-.06876.02955-.09301-.06263-.09478-.20562-.09298-.30551-.1177z" fill="#926800"/>
  <path d="m5.11238,5.11256c.06177-.04046.08729-.09491.08011-.16154-.16146-.0784-.32579-.13253-.50482-.1897 .0113.03961.00504.07548-.00401.11737 .11826.08677.30137.19005.42872.23388z" fill="#926100"/>
  <path d="m6.14717,3.99763c.15252-.03552.27041-.01698.38517-.02724 .14874-.01329.2666-.09339.37024-.19748 .11349-.11398.21344-.29313.33882-.21078-.04017-.10974-.16667-.20272-.25045-.25432-.08315.04123-.16717-.01164-.16959-.10195l-.19283-.102c-.13984.12225-.21938.15678-.29437.33269-.02473.05802-.04364.11259-.09173.16334 .01947.16281-.01403.24641-.09528.39772z" fill="url(#j)"/>
  <path d="m6.51093,4.42154c-.06192.05786-.25272.2998-.31651.50062 .04786-.01483.09185-.10181.15821-.11349 .06971-.01858.13682-.01751.19076-.05575 .07336-.05201.0885-.15581.02629-.22439-.02179-.02403-.04683-.04941-.05875-.10699z" fill="url(#au)"/>
  <path d="m6.35685,4.83794c-.0935.0299-.09995.09739-.17315.11457-.02424.08039-.04898.15776-.04095.23817 .10467.08757.21818.14166.35203.19881-.00741-.14923.03361-.28508.11858-.40863 .05901-.08582.13722-.15206.24474-.23141 .07877-.075.12907-.19986.1652-.29913-.16445,0-.32572-.0091-.47749-.07413l.00122-.00287-.01743.02179c-.00152.05176.02523.0846.05407.11463 .07251.07548.07094.20981-.02065.26843-.05787.03705-.13852.03815-.20618.05978z" fill="#926000"/>
  <path d="m5.78681,5.85887c-.03726-.03026-.08552-.05043-.14987-.05423-.03011.0249-.07159.03054-.11035.05117 .05885.01539.10037.04463.133.08719 .09627.12552.11268.30801.15375.45613 .07483.26991.20769.52822.374.71222 .02552-.01224.06966-.05786.11263-.05554 .05711.00309.07844-.04022.10461-.04631-.04352-.13357-.11388-.22329-.2313-.39181-.05977-.08578-.10915-.17853-.15285-.27425-.06422-.14067-.10992-.38411-.23361-.48457z" fill="url(#an)"/>
  <path d="m5.47469,5.59937c-.0518-.02048-.08487-.03227-.15259-.06782-.07993.10628-.03697.20169.05591.28907 .04642.02464.0727.0375.09592.04177 .03793-.04024.15611-.05886.15611-.10046 0-.01078-.02358-.04096-.05061-.07272-.03503-.04115-.05477-.0701-.10474-.08984z" fill="#926a00"/>
  <path d="m6.09471,4.03233c.08802-.1299.19515-.33935.06941-.59184-.11142.08089-.25236.05823-.33129.08678-.08374.09373-.14111.16567-.14085.24193 .00023.06943.04494.13859.14772.21717-.03156.08875-.07285.17426-.12839.25503-.1288,0-.23352-.02117-.27316.05252-.07918.14719.14107.44695.25864.52566 .03595-.40609.24239-.51915.39792-.78723z" fill="#926100"/>
  <path d="m5.71037,4.98312 .35268.17637c-.02047-.03981.01523-.10893.01865-.16593 0-.02169-.05037-.03479-.08693-.06899-.0342-.03198-.0596-.10173-.07136-.1742-.00218-.01342-.00389-.02694-.0051-.04032-.01709-.1891.09112-.24091.25476-.28675 .05948-.01667.13038-.1643.13038-.20514 0-.05059-.11611-.10929-.11611-.20893-.01509.00798-.04318.00373-.0556.02011-.20163.3314-.396.39394-.42137.95377z" fill="url(#bk)"/>
  <path d="m1.92188,4.9919c-.0089.05226-.03084.101-.05067.14909 .07836.11698.20864.0253.25188-.06981 .01886-.04149.06203-.18605-.00804-.20905s-.1158.09958-.19317.12977z" fill="url(#aa)"/>
  <path d="m.67985,6.62032c.02231.00043.06779-.0311.08205.00592s.05008.01849.06607.02448c.00524-.03814.00128-.07278-.01119-.09522s-.02315.00686-.05487-.03466c-.04385-.05739-.08135.07059-.08207.09948z" fill="url(#bg)"/>
  <path d="m.69694,6.50865c.02302-.01774.03822-.02565.04878-.02476 .027.00228.02789.0442.08228.04298 .02266-.01862.02832-.14953-.00818-.13155s-.0519-.01376-.08878-.01823c-.04194-.00509-.03437.10448-.0341.13155z" fill="url(#bf)"/>
  <path d="m1.29347,5.60361c.0431.04067.11995.01742.17169.04224-.03795-.10595-.00441-.14109-.0517-.22194-.01461-.02498-.09612-.05409-.12752-.09313-.05828-.07244-.12221-.18063-.04359-.26246 .03146-.03274.08357-.04652.12997-.00929 .08114.0651.21525.24616.21728.31983-.00647.12345 7e-005,.21509.05466.32992-.07438.00187-.13392.03339-.07981.11683l.08557.04318c-.01918-.10396.00911-.13168.03003-.21498 .04458-.20166-.0139-.28228-.05708-.40772-.33597-.06259-.47682-.94417-.28314-1.13906-.0531.03733-.10528.10583-.13724.13727-.03.16271-.00673.31706.05028.55424-.14568.19241-.21311-.1247-.23155-.22937-.05299.37237.06703.72532.27215,1.03446z" fill="url(#ba)"/>
  <path d="m.68198,6.37552c.05427-.07709.11233.03151.14971-.01131 .01155-.00757-.00642-.08168.00115-.13803 .01701-.12656.06067-.23577.06341-.36724 .00238-.03747-.06758-.08443-.09663-.04902-.03702.04514-.13641.27282-.11764.56561z" fill="url(#x)"/>
  <path d="m.82608,5.77566c.02376-.00194.06828.02183.08336.05439 .01802-.04298.14636-.2313.14636-.27827 0-.00589-.00387-.01389-.01812-.02899 .04138.01883.04271.00674.04493-.00913l.01822-.20338c-.03027-.06391-.05164-.1278-.06898-.19168-.0171.10337-.02836.21039-.04546.31377-.0115.04347-.00267.06179.01727.07197-.00911-.00359-.02434-.01252-.03408-.0199-.0071.01555-.05296.11581-.0654.13981l-.07809.15142z" fill="url(#w)"/>
  <path d="m1.42093,3.67912c-.08046-.00829-.14396-.0585-.15274-.14637-.25473.17558-.21829.45651-.25134.73851 .0365.05499.12965-.02678.14922-.04348 0-.23226.07381-.40768.25486-.54866z" fill="url(#z)"/>
  <path d="m.83639,4.96427c.03443.0355.0417.09783.03659.1502 .04659-.01432.10278-.02932.1497-.02885-.00695-.04918-.01602-.09114-.01998-.14391-.03921.00302-.10972.00696-.16631.02255z" fill="url(#f)"/>
  <path d="m.62126,5.46199c-.03135-.02445-.06811-.03734-.10117-.043-.0751.1876-.14579.38322-.12129.47466 .00461.0693.07154.05723.10625.0081 .01539-.02178.01937-.04201.02065-.06932-.01898-.03029.03643-.2079.09556-.37044z" fill="url(#bc)"/>
  <path d="m.50713,5.38871c.05304.00852.10316.02939.14355.06527 .06641-.17692.15008-.34794.19424-.34821 .00575-.05004-.0036-.08987-.02594-.11737-.03392.01198-.0693.01951-.08912.04136-.0758.06189-.15826.20439-.22272.35895z" fill="url(#y)"/>
  <path d="m1.92978,4.5384c.07975-.13723.09379-.29159.05343-.4441-.0711-.00029-.1313-.04354-.12935-.11926-.06494-.02549-.13904-.02956-.22276-.00546 .17791.06535.26709.3203.29868.56882z" fill="url(#o)"/>
  <path d="m2.00448,4.08811c.04479.16877.02433.33805-.07054.486 .01511.143.01148.28073-.00487.37531 .07062-.04017.09347-.13154.18686-.11743 .09818.01483.05839.19741.03344.25074-.04647.09937-.20862.21021-.29793.09164-.00494-.00222-.0611.07004-.19203.07678 .01519.05597.03674.10362.05788.16256 .0721-.21069.34569.04993.42328-.12697 .12788-.29151.09591-.92228-.1361-1.19864z" fill="url(#bi)"/>
  <path d="m1.8761,3.98472c.00319.06206.05817.0892.11426.08733-.03403-.03716-.07207-.06693-.11426-.08733z" fill="#0c4d00"/>
  <path d="m2.6345,4.62265c.07465-.03339.11403-.10518.13447-.18105l-.09737-.12052c-.00661.10119-.0222.20136-.03709.30157z" fill="#926900"/>
  <path d="m2.78459,4.46259c-.02461.08082-.07178.15265-.15362.18397-.01408.09597-.0268.19207-.02964.28923 .08165.17438.22632.45503.45814.54988 .2477-.19789-.06297-.73504-.27488-1.02308z" fill="url(#p)"/>
  <path d="m.72465,7.02746c-.02937-.05877-.07886.00616-.05459.05973 .04039.00674.072-.01276.06499-.04254 .04451.00656.04501.03889.11719.00349-.11642-.01656-.17344-.13828-.09133-.24419-.04052-.00658-.03516-.04508-.06337-.06217-.01131.02393-.03331.07985-.04991.1407l.01706-.00014c-.0345.05813-.08303.30435.05666.28438-.08036.0077-.10054-.17501-.0294-.17638 .01842-.00035.03554.01445.03269.0371z" fill="url(#ag)"/>
  <path d="m3.817,5.11415c-.01856-.00334-.03882-.00564-.06117-.00659-.10384.29657-.0632.52119-.13417.78209 .05913-.01154.11595-.00926.17046.00687-.03985-.23382-.03321-.54962.02488-.78237z" fill="url(#v)"/>
  <path d="m7.66188,4.77531c.02415,0 .08128.00193.08128-.03482 0-.09089-.25742-.15152-.19381-.02699 .02051.04013.0605.06181.11253.06181z" fill="#4d3b00"/>
  <path d="m7.33854,3.93401c-.00426.00994-.00054.02214.01488.03117s.09565.03744.11895.03341c.03358-.0058.02966-.0338.01169-.05585s-.04422-.02499-.07322-.02612c-.02074-.0008-.06208-.00645-.07231.01739z" fill="#4d3200"/>
  <path d="m4.21885,3.13161c-.16329.03376-.38991.24628-.54751.215-.05382-.01068-.11534.04906-.15699.07534l-.00452.02278-.00748.03436 .01443.04985 .03432.0073 .07496-.02111 .02278.00452 .02278.00451c.04259.00846.10089-.05106.11369-.09576 .13311-.05534.21487-.13533.35333-.15394 .23366-.03136.42574-.07272.6655-.03372 .11024.01791.19948.00124.30382-.00527 .06867-.00428.1383-.00028.20827.02164 .07589.02377.14302.06816.22156.08146 .12819.02168.24036-.00181.36595-.03549 .15626-.04191.32525-.13524.45847-.22302l.13663-.09824c.1299-.1122.26826-.21465.29463-.39924 .00705-.04932.00484-.09423-.02695-.14228-.02078-.03141-.06273-.05376-.0997-.06361l.11382-.04647c.26974-.11618.50814-.38428.6855-.59678 .12443-.14908.25193-.30165.35414-.45989 .15818-.24492.28592-.52982.36604-.79905 .03633-.12207.08119-.2565-.0095-.36766-.0275-.03371-.06404-.06104-.10676-.0797-.10346-.04518-.21607-.0245-.32214-.0056-.39705.07076-.84992.35452-1.21517.65418-.43886.36009-.85417.74819-1.2939,1.10487-.48582.39405-.98702.78548-1.49169,1.15372-.20252.14777-.37635.27352-.38113.2807-.00518.02608.00124.01401.00235.04781 .05851.02876.03954.07354.09807.1023l-.00452.02277 .03036.01753 .01972-.03126c.05718-.12638.12496-.12748.21836-.19028 .08293-.05575.18831-.09008.25256-.15168l.0602-.0023c.10196-.01769.28193-.0358.42922-.05879 .04697-.00734.18426-.03863.32637-.06053-.17092.0702-.38563.17497-.57986.22104zm.97763-.074c-.06483.0043-.01722-.04299-.12472.00248 .00594.0061.01.03129.00135.0416 .03792-.01827.07905-.03295.12337-.04408zm.00021-.07488c.25824-.16181.82616-.26331 1.03064-.28938 .0038-.02306.00196-.04575-.0042-.06607l-.1375.0111c-.38492.03817-.78854.08481-1.14194.24798-.14789.06828-.29445.11517-.4434.18543l-.16209.07583c.01781.02661.10693.00567.2285-.00051 .1616-.00823.37877-.06586.49331-.0964 .0636-.01695.08175-.03367.13669-.06798h-1e-005zm-1.06783.25547c.15248-.01137.29501-.04383.44342-.04772l.20706.00182c.04024-.00151.32021-.04333.2737-.12766-.16022.04797-.31394.09843-.48654.10156-.14939.00271-.2969.03215-.43765.072zm1.84285-.98526c.04563-.08433.04754-.14889.06676-.21713-.01738-.05372.02048-.18169.0314-.23673 .01001-.05041-.03239-.03828-.08524-.00734-.35048.20516-.64257.50209-1.02069.6683-.03094.0136-.048.02889-.0734.05168l.02148-.00249c.31279-.14496.72021-.1586 1.05969-.25629zm-1.097.29114c-.24515.10192-.59436.29661-.81455.44382 .83418-.09897 1.0025-.21847 1.52598-.40156 .19092-.0647.38944-.1128.58719-.15322-.02787-.02302-.06614-.0607-.09366-.10892-.02592-.01036-.06354-.02646-.09211-.05378-.35092.11912-.82285.12922-1.11285.27366zm.9662-.94427c.03369-.16976.28325-.30969.33624-.49471-.04282.01282-.08885.04455-.13336.0821-.7196.6072-1.46121,1.21743-2.20679,1.79192 .37667-.12607.64189-.29362.71689-.33579 .07467-.04199.14479-.11135.2205-.14282 .04961-.17324 1.0295-.88339 1.06652-.90069h-1e-005zm-.88763.84617c.49126-.23271.87209-.63276 1.08383-.70053 .0203-.0095.07187-.05924.09441-.08033 .20875-.19544.53858-.35392.68789-.58255 .0043-.00662.13009-.13844.06561-.15124-.03104-.00616-.10578.07074-.13648.09125-.03179.03175-.15947.11593-.25544.17304-.17986.10706-.39247.22694-.54727.36584-.04596.0459-.14472.1025-.19995.14484-.14606.11196-.88602.64881-.95097.81011 .06534.01296.10415-.04474.15837-.07043zm2.23609-1.86032c.14134-.10802.25581-.22913.39993-.34206 .06577-.05154.12701-.10801.16427-.18697-.26119.05017-.90212.33831-1.05641.6591 .14241-.0014.38177-.04566.49221-.13007zm.31873-.24541c-.04002.03588-.06524.07211-.02606.10739 .09142.08236.18041.04904.23822.21161-.11028.07374-.182.1488-.30326.17226-.09606.01858-.16537.06216-.24178.11747-.01718.08661.07428.17847.06278.28481-.01095.10127-.05594.20032-.04523.30351 .0766.0152.18492.01633.26393-.00611-.06103.03491-.19164.04357-.25877.03024-.01584-.00564-.11052.01014-.14697.01934-.14419.03638-.96281.39844-.99497.48599-.0103.05189-.0536.14929-.03874.19522 .02796.02167.04961.04535.08433.05223 .01276.03069.0621.09173.10489.11118 .15358-.023.30913-.07363.42802-.05275 .10715-.06397.20537-.08987.29571-.16324 .48667-.42067 1.00132-1.01512 1.20815-1.64674 .03304-.10091.08393-.2754.03326-.39031s-.2226-.16352-.3288-.12653c-.07568.02636-.10058.09993-.19139.16818-.05396.04055-.09431.08231-.14333.12626zm-.17498.48735c-.00499-.01876-.01949-.04792-.03055-.06785-.02269-.04088-.04338-.03669-.08489-.04474s-.05059-.03606-.08573-.04843-.06993.01178-.11698.02753c-.00858.04323.00355.11562-.03563.14006-.04429.02761-.0539.0563-.06014.10395 .08159.01619.1562-.00806.236-.00248 .04757-.04316.11714-.07752.17793-.10804zm.10216-.4024c-.07768.04092-.14752.13616-.27659.20849 .02365.08624.11235.03969.15769.10544 .02317.03358.04263.07327.05347.07542 .0978.01941.25159-.11211.32357-.16259-.08248-.17221-.18508-.10598-.25813-.22676zm-2.00563,2.27595c.22729-.0473.45643-.06837.657-.08514 .09154-.00765.1855-.00271.27575-.01445 .13034-.01696.26713-.06798.3122-.09243-.00052.01861-.10547.06766-.22934.09285l-.20402.02255c.00554.02253.00831.04452.00707.06569 .30478-.0424.39392-.02189.45052-.00868-.30159-.03501-.92985.10068-1.35935.26558-.05981.02296-.11422.05762-.17308.08317 .01774.02652.06905.01629.09566.00898 .23042-.06326.71443.02925.9.10348-.30526-.07667-.63076-.11475-.94402-.06822-.1481.022-.26517.12989-.42021.13339 .06738.03263.25237.01495.33903.00805 .2077-.01654.29076.09418.43985.10789 .3996.03673.77998-.23508 1.05752-.49394 .09947-.09277.17421-.23816.1224-.35025-.02735-.05916-.07298-.08456-.12655-.09161-.129-.01696-.31354.03941-.44028.06471-.18646.03724-.64281.1312-.76017.24839zm.98055-1.20503c-.07764.06711-.25134.16332-.31177.23764-.00306.01543-.00643.03065-.01013.04594-.00758.07669-.04107.15221-.03272.22956 .47842-.26016.8468-.42524 1.06205-.46729 .02193-.00427.04188-.00594.05953-.00638-.01901-.10679.03361-.19961.04632-.29991 .01389-.10957-.07586-.18757-.06541-.27973-.07861-.00893-.15898.01559-.22887.01036-.15613.2396-.30852.34787-.51901.52981zm.10953-.68072c-.07309.049-.12027.10997-.19584.16137-.05734.03901-.09968.09286-.1127.12705-.06756.17751-.18308.24444-.29291.39798 .04602.01113.1627-.0858.203-.10672 .27285-.20984.39498-.22298.55513-.35269 .08188-.06633.15046-.14668.22577-.13785 .0225-.03952.03867-.07416.06315-.09222s.01517-.06329.02489-.11192c-.14468.0642-.38257.05606-.47049.11499z"/>
  <path d="m5.19648,3.05761c-.06482.00429-.01722-.04299-.12472.00248 .00594.00609.01.0313.00134.0416 .03793-.01828.07906-.03296.12338-.04408zm.0002-.07488c.25825-.16182.82617-.26332 1.03064-.28938 .00381-.02305.00196-.04576-.00419-.06607l-.1375.0111c-.38492.03815-.78854.0848-1.14194.24797-.14789.06828-.29446.11517-.4434.18542l-.16208.07583c.0178.02661.10692.00567.22848-.00052 .1616-.00822.37877-.06585.49331-.09639 .0636-.01695.08176-.03367.13669-.06798h-1e-005zm-1.06783.25548c.15248-.01137.29501-.04383.44343-.04772l.20706.00182c.04025-.00151.32022-.04333.2737-.12766-.16022.04797-.31394.09842-.48653.10156-.14939.00272-.2969.03215-.43765.072zm1.84284-.98526c.04563-.08433.04755-.14889.06676-.21713-.01738-.05373.02048-.1817.0314-.23673 .01-.05041-.0324-.03828-.08524-.00734-.35049.20516-.64258.50209-1.02069.6683-.03094.01359-.048.02888-.0734.05167l.02148-.00248c.31278-.14497.72021-.15861 1.05969-.2563h-1e-005zm-1.09699.29113c-.24516.10192-.59437.29661-.81456.44383 .83419-.09897 1.0025-.21847 1.52598-.40157 .19093-.0647.38944-.11281.58719-.15322-.02787-.02301-.06614-.06069-.09366-.10891-.02592-.01037-.06355-.02647-.09211-.05378-.35092.11913-.82285.12923-1.11285.27366zm.9662-.94427c.03369-.16976.28325-.30969.33624-.4947-.04282.0128-.08885.04454-.13336.08209-.71959.6072-1.46121,1.21743-2.20679,1.79192 .37666-.12606.64189-.29361.71689-.33579 .07467-.04199.14479-.11135.22049-.14282 .04962-.17324 1.0295-.88339 1.06652-.90069h1e-005zm-.88764.84618c.49126-.23271.8721-.63277 1.08384-.70054 .0203-.0095.07187-.05924.0944-.08033 .20876-.19543.53858-.35391.68789-.58255 .00431-.00661.1301-.13843.06562-.15123-.03104-.00616-.10578.07074-.13648.09125-.03179.03175-.15947.11593-.25544.17304-.17987.10706-.39247.22694-.54727.36583-.04597.04591-.14472.1025-.19996.14484-.14606.11196-.88602.64881-.95097.8101 .06534.01297.10415-.04474.15837-.07042zm2.23609-1.86032c.14133-.10802.25582-.22913.39993-.34206 .06577-.05154.12701-.10802.16426-.18697-.26119.05016-.90211.33831-1.05641.6591 .14241-.00141.38177-.04566.49221-.13007zm.31873-.24541c-.04002.03589-.06524.07211-.02606.1074 .09142.08236.18041.04904.23822.21161-.11027.07373-.182.1488-.30326.17226-.09606.01858-.16537.06216-.24178.11748-.01719.08661.07428.17847.06278.2848-.01095.10127-.05595.20033-.04524.30351 .07661.01521.18491.01632.26393-.00611-.06103.0349-.19164.04357-.25877.03025-.01585-.00565-.11052.01013-.14696.01933-.14419.03639-.96282.39844-.99497.48599-.0103.05188-.0536.14928-.03874.19521 .02796.02168.04961.04535.08433.05224 .01277.03069.0621.09173.10489.11117 .15358-.023.30913-.07362.42802-.05275 .10715-.06397.20537-.08987.29572-.16324 .48667-.42067 1.00133-1.01513 1.20815-1.64675 .03304-.10091.08393-.2754.03326-.39031s-.2226-.16351-.3288-.12654c-.07568.02636-.10058.09994-.19139.16818-.05396.04055-.09431.08231-.14333.12626zm-.17498.48735c-.00499-.01876-.0195-.04791-.03056-.06785-.02269-.04088-.04338-.03669-.08489-.04473s-.05059-.03607-.08573-.04844-.06993.01178-.11699.02754c-.00857.04322.00356.11561-.03563.14004-.0443.02762-.0539.05631-.06014.10396 .08158.01619.15619-.00806.23599-.00248 .04758-.04316.11714-.07752.17794-.10805zm.10216-.4024c-.07768.04093-.14752.13617-.27659.2085 .02365.08624.11235.03969.15768.10544 .02317.03358.04263.07327.05347.07542 .0978.01941.25159-.11211.32357-.16258-.08248-.17222-.18509-.10598-.25813-.22678zm-2.00563,2.27595c.22729-.04731.45643-.06837.657-.08514 .09154-.00765.1855-.00271.27575-.01445 .13034-.01696.26713-.06798.31221-.09243-.00052.01861-.10547.06766-.22934.09285l-.20402.02255c.00554.02254.00832.04452.00707.0657 .30478-.04241.39392-.0219.45052-.00869-.3016-.035-.92986.10068-1.35934.26558-.05981.02296-.11423.05762-.17309.08317 .01774.02652.06905.01629.09566.00898 .23042-.06325.71443.02925.9.10347-.30526-.07666-.63076-.11474-.94402-.06822-.14811.022-.26517.12989-.42022.13339 .06738.03263.25237.01495.33904.00805 .20771-.01654.29077.09418.43985.10789 .3996.03673.77997-.23508 1.05752-.49394 .09946-.09278.17421-.23815.12239-.35024-.02735-.05917-.07297-.08457-.12655-.09161-.129-.01697-.31355.0394-.44029.06471-.18646.03723-.64281.1312-.76016.24838zm.98056-1.20504c-.07765.06711-.25135.16332-.31178.23763-.00306.01543-.00643.03065-.01013.04595-.00757.07667-.04107.1522-.03271.22955 .47842-.26015.84679-.42524 1.06205-.46728 .02193-.00429.04189-.00594.05954-.00639-.01901-.10679.03361-.1996.04632-.2999 .01389-.10957-.07587-.18757-.06541-.27974-.07862-.00892-.15898.01559-.22887.01037-.15613.23961-.30852.34787-.519.5298zm.10953-.68072c-.0731.04899-.12027.10997-.19584.16137-.05734.03902-.09969.09286-.11269.12705-.06757.1775-.18309.24444-.29291.39798 .04602.01114.1627-.0858.203-.10671 .27285-.20985.39498-.22298.55513-.35269 .08189-.06633.15046-.14668.22576-.13785 .02251-.03952.03867-.07416.06315-.09222s.01516-.06329.02489-.11192c-.14468.0642-.38257.05606-.47049.11499z" fill="#fdb300" fill-opacity=".50196"/>
  <path d="m1.61419,4.19402c-.10301.02062-.10713.17006-.09758.24897 .00889.07344.05899.29521.1764.26427 .14498-.0382.07682-.54439-.07882-.51324z" fill="#fff"/>
  <path d="m1.29474,3.55006c.02508.05983.05524.08428.11634.10302 .11518-.09589.21608-.17893.25985-.22807 .08045-.09032-.02939-.16608-.05461-.11967-.03382.06221-.17649.14299-.32158.24472z" fill="url(#e)"/>
 </g>
</svg>
