<?xml version="1.0" encoding="UTF-8"?>
<svg viewBox="0 0 467.09525 689.15436" xmlns="http://www.w3.org/2000/svg">
 <path d="m460.15 73.154s16.577 107.88-11 179.3l-222.46 434.7-209.61-439.09c-25.456-88.388-11-174.91-11-174.91s47.648-71.154 225.84-71.154 228.23 71.154 228.23 71.154z" fill="#d4aa00" fill-rule="evenodd" stroke="#000" stroke-linejoin="round" stroke-width="4"/>
 <path d="m226.7 467.45c77.82-134.76 214.9-412.85 233.46-394.29 0-20.518-50.036-71.154-228.23-71.154s-225.84 46.396-225.84 71.154c21.366-21.366 147.07 258.06 220.61 394.29z" fill="#fd5" fill-rule="evenodd" stroke="#000" stroke-linejoin="round" stroke-width="4"/>
 <path d="m227.65 73.715c-56.989 0-103.25 46.261-103.25 103.25 0 10.907 2.2335 23.567 6.125 36.906-5.644 3.9522-9.1416 9.0809-9.4688 14.812-0.60307 10.566 9.7659 20.246 25.031 25 21.523 44.42 55.047 85.063 81.562 85.062 25.648 0 59.104-40.186 80.875-84.312 2.8911-0.2347 5.85-0.65946 8.8438-1.2812 23.337-4.847 39.962-20.005 37.094-33.812-1.9702-9.4858-12.644-15.869-26.688-17.375 2.0057-8.9434 3.0938-17.396 3.0938-25 0-56.989-46.229-103.25-103.22-103.25z" fill-opacity=".31373"/>
 <path d="m237.97 76.846c-0.56701-23.362-73.089-89.897-143.27-30.823s-74.168 29.213-80.524 30.114 5.4127 15.224 23.171 13.924c43.688-3.1977 75.664-55.61 115.85-52.701 40.497 2.9315 60.191 39.353 60.191 39.353l24.583 0.13277z" fill-opacity=".31373" fill-rule="evenodd"/>
 <path d="m238.86 61.494c-1.8886-23.292-78.061-85.615-144.79-22.663s-72.395 33.365-78.69 34.624 6.2658 14.893 23.922 12.59c43.437-5.6657 72.395-59.805 112.68-59.175 40.598 0.63434 62.323 35.883 62.323 35.883l24.551-1.259z" fill="#ccc" fill-rule="evenodd" stroke="#000" stroke-width="4"/>
 <path d="m151.92 20.683c-18.054 0.20866-37.59 7.3197-56.281 26.062-17.21 17.257-29.88 27.168-39.344 32.625v1.9375c34.528-14.648 60.886-54.981 95.688-54.438 40.598 0.63434 62.312 35.875 62.312 35.875l9.4375-0.46875c-7.2834-16.49-36.785-41.999-71.812-41.594z" fill-opacity=".31373" fill-rule="evenodd"/>
 <path d="m328.88 160.96c0 56.989-61.818 161.79-103.24 161.79-42.585 0-103.24-104.8-103.24-161.79s46.252-103.24 103.24-103.24 103.24 46.252 103.24 103.24z" fill="#ccc" stroke="#000" stroke-linecap="round" stroke-width="4"/>
 <path d="m327.5 144.1c0.2483 2.9188 0.375 5.861 0.375 8.8438-1e-5 56.989-61.795 161.81-103.22 161.81-38.84-1e-5 -92.731-87.18-101.91-145.75 5.111 58.247 62.258 153.75 102.91 153.75 41.424 0 103.22-104.82 103.22-161.81 0-5.7389-0.47321-11.359-1.375-16.844z" fill-opacity=".31373"/>
 <path d="m297.4 242.54c24.03-2.3646 42.813-22.633 42.812-47.281 0-26.236-21.295-47.531-47.531-47.531s-47.531 21.295-47.531 47.531c0 1.844 0.1078 3.6792 0.3125 5.4688" fill="#ccc" stroke="#000" stroke-linecap="round" stroke-width="4"/>
 <path d="m202.59 201.26c0.24702-1.9618 0.375-3.9715 0.375-6 0-26.236-21.264-47.531-47.5-47.531s-47.531 21.295-47.531 47.531c0 25.256 19.714 45.929 44.594 47.438" fill="#ccc" stroke="#000" stroke-linecap="round" stroke-width="4"/>
 <path d="m237.06 301.1c0 6.1272-7.3345 13.462-11.1 13.462-4.2378 0-11.1-7.3345-11.1-13.462s4.9728-5.4319 11.1-5.4319 11.1-0.69528 11.1 5.4319z"/>
 <path d="m203.61 260.11c0.00191 5.7384-3.5217 10.392-7.869 10.392s-7.8709-4.6532-7.869-10.392 3.5217-10.392 7.869-10.392 7.8709 4.6532 7.869 10.392z" stroke="#000" stroke-linecap="round" stroke-width="2"/>
 <path d="m260.27 260.11c0.00191 5.7384-3.5217 10.392-7.869 10.392s-7.8709-4.6532-7.869-10.392 3.5217-10.392 7.869-10.392 7.8709 4.6532 7.869 10.392z" stroke="#000" stroke-linecap="round" stroke-width="2"/>
 <path d="m198.89 257.69c8.2e-4 1.9699-0.98588 3.5675-2.2033 3.5675s-2.2042-1.5976-2.2033-3.5675 0.98588-3.5675 2.2033-3.5675 2.2041 1.5976 2.2033 3.5675z" fill="#fff"/>
 <path d="m253.97 258.64c8.2e-4 1.9699-0.98588 3.5675-2.2033 3.5675s-2.2042-1.5976-2.2033-3.5675 0.98588-3.5675 2.2033-3.5675 2.2041 1.5976 2.2033 3.5675z" fill="#fff"/>
 <path d="m292.81 154.48c-17.83 0.25116-34.358 14.095-38.625 31.25 8.3807-5.5132 18.898-8.8125 30.312-8.8125 22.94-2e-5 42.241 13.271 47.875 31.25 8.9722-23.957-11.562-53.861-37.5-53.656-0.69023-0.03128-1.3755-0.04093-2.0625-0.03125z" fill-opacity=".31373"/>
 <g transform="matrix(1.3917 0 0 1.4058 -227.51 -650.39)" fill="none" stroke="#000" stroke-linecap="round" stroke-width="2.8597">
  <path d="m340.57 672.76c32.735-15.109 47.844-1.259 47.844-1.259"/>
  <path d="m337.42 678.43c23.922-15.109 44.696 9.4428 44.696 9.4428"/>
  <path d="m337.42 681.57c25.181-12.59 29.588 18.256 29.588 18.256"/>
 </g>
 <g transform="matrix(-1.3917 0 0 1.4058 678.8 -650.39)" fill="none" stroke="#000" stroke-linecap="round" stroke-width="2.8597">
  <path d="m340.57 672.76c32.735-15.109 47.844-1.259 47.844-1.259"/>
  <path d="m337.42 678.43c23.922-15.109 44.696 9.4428 44.696 9.4428"/>
  <path d="m337.42 681.57c25.181-12.59 29.588 18.256 29.588 18.256"/>
 </g>
 <path d="m157.29 154.48c17.83 0.25116 34.358 14.095 38.625 31.25-8.3807-5.5132-18.898-8.8125-30.312-8.8125-22.94-2e-5 -42.241 13.271-47.875 31.25-8.9722-23.957 11.562-53.861 37.5-53.656 0.69023-0.03128 1.3755-0.04093 2.0625-0.03125z" fill-opacity=".31373"/>
 <path transform="matrix(.94762 0 0 1.0393 6.0105 13.773)" d="m88.388 263.48a19.092 38.184 0 1 1 -38.184 0 19.092 38.184 0 1 1 38.184 0z" fill-opacity=".31373"/>
 <path transform="matrix(.55566 -.14462 .11851 .67804 53.979 182.11)" d="m88.388 263.48a19.092 38.184 0 1 1 -38.184 0 19.092 38.184 0 1 1 38.184 0z" fill-opacity=".31373"/>
 <path transform="matrix(.7149 -.21366 .16091 .94924 76.204 241.4)" d="m88.388 263.48a19.092 38.184 0 1 1 -38.184 0 19.092 38.184 0 1 1 38.184 0z" fill-opacity=".31373"/>
 <path transform="matrix(.61918 .14995 -.068747 .81181 5.1646 -50.978)" d="m88.388 263.48a19.092 38.184 0 1 1 -38.184 0 19.092 38.184 0 1 1 38.184 0z" fill-opacity=".31373"/>
 <path transform="matrix(.81546 .16351 -.087895 1.0834 262.83 144.83)" d="m88.388 263.48a19.092 38.184 0 1 1 -38.184 0 19.092 38.184 0 1 1 38.184 0z" fill-opacity=".31373"/>
 <path transform="matrix(.74472 .41441 -.20773 1.061 406.8 -88.637)" d="m88.388 263.48a19.092 38.184 0 1 1 -38.184 0 19.092 38.184 0 1 1 38.184 0z" fill-opacity=".31373"/>
 <path transform="matrix(.5851 .11227 -.063064 .74388 336.75 139.82)" d="m88.388 263.48a19.092 38.184 0 1 1 -38.184 0 19.092 38.184 0 1 1 38.184 0z" fill-opacity=".31373"/>
 <path d="m226.83 466.42v217.79" fill="none" stroke="#000" stroke-width="4"/>
 <path d="m120.28 324.72c-0.37195 0.00434-0.72775 0.02975-1.0938 0.125-5.856 1.5241-8.5917 14.365-6.0938 28.656s9.3003 24.649 15.156 23.125c1.3337-0.34711 2.4846-1.2833 3.4688-2.6875-3.7126-3.8642-7.0366-11.35-8.625-20.438-1.9304-11.044-0.71743-21.18 2.625-25.938-1.7706-1.8539-3.6317-2.8648-5.4375-2.8438z" fill-opacity=".31373"/>
 <path d="m30.766 142.23c-5.865 0.90105-11.304 12.702-12.617 28.209-1.449 17.111 2.6605 32.295 9.1859 33.876 2.318 0.56137 4.6262-0.70543 6.7079-3.29-4.5934-4.9528-7.1634-17.728-5.9702-31.819 0.93268-11.014 3.9457-20.13 7.7153-24.829-0.98442-1.0615-2.064-1.7777-3.2157-2.0566-0.61176-0.14815-1.1995-0.18363-1.8062-0.09041z" fill-opacity=".31373"/>
 <path d="m71.688 247.91c-9.9867 0-18.094 17.782-18.094 39.688s8.107 39.687 18.094 39.688c2.8737 0 5.5862-1.4749 8-4.0938-5.9748-6.4822-10.094-19.992-10.094-35.594s4.119-29.08 10.094-35.562c-2.4138-2.6188-5.1263-4.125-8-4.125z" fill-opacity=".31373"/>
 <path d="m163.44 440.22c-0.47963 0.01326-0.96662 0.10927-1.4375 0.25-7.5341 2.2517-10.892 20.305-7.5 40.312s12.247 34.408 19.781 32.156c2.0867-0.62366 3.8582-2.4636 5.25-5.2188-4.3031-5.6884-8.0713-15.376-10.031-26.938-2.4523-14.466-1.3832-27.901 2.25-35.094-2.6779-3.54-5.5527-5.545-8.3125-5.4688z" fill-opacity=".31373"/>
 <path d="m408.59 178.34c-2.6278 0.06391-5.3908 1.9193-8 5.1875 4.6715 8.446 5.837 25.998 2.3125 44-2.4366 12.445-6.5986 22.511-11.156 28.219 1.1297 2.037 2.4739 3.557 4 4.4062 7.8484 4.3674 17.778-10.262 22.156-32.625s1.5359-44.039-6.3125-48.406c-0.98105-0.54592-1.969-0.80632-3-0.78125z" fill-opacity=".31373"/>
 <path d="m361.94 315.12c-2.0827 0.13574-4.1237 1.7092-5.9375 4.3438 3.1509 5.4374 4.7691 15.366 3.8438 26.281-0.79592 9.3885-3.2979 17.327-6.5 21.969 1.3796 2.3957 3.0536 3.9198 4.9375 4.2812 6.1662 1.1832 12.233-10.571 13.562-26.25s-2.5838-29.379-8.75-30.562c-0.38538-0.07395-0.77265-0.0875-1.1562-0.0625z" fill-opacity=".31373"/>
 <path d="m297.94 400.12c-2.3492 0.15999-4.6769 1.7046-6.8125 4.3125 5.203 7.2869 8.0322 22.936 6.625 40.281-1.2282 15.139-5.3755 27.769-10.531 34.062 1.6465 2.3054 3.5281 3.7733 5.5938 4.1875 8.594 1.7232 17.085-15.415 18.938-38.25s-3.6248-42.746-12.219-44.469c-0.53712-0.1077-1.0591-0.16141-1.5938-0.125z" fill-opacity=".31373"/>
</svg>
